<svg width="151" height="130" viewBox="0 0 151 130" fill="none" xmlns="http://www.w3.org/2000/svg">
<g clip-path="url(#clip0_1218_1209)">
<path d="M76 0L151.344 130.5H0.655792L76 0Z" fill="#556577"/>
<path d="M59.25 56.125H63.3125C65.5596 56.125 67.375 57.9404 67.375 60.1875V64.25H55.1875V60.1875C55.1875 57.9404 57.0029 56.125 59.25 56.125ZM67.375 68.3125V108.938C67.375 111.185 65.5596 113 63.3125 113H47.0625C44.8154 113 43 111.185 43 108.938V101.435C43 97.042 44.1934 92.7256 46.4531 88.9551C48.1924 86.0605 49.3096 82.8359 49.7285 79.4844L50.6807 71.8672C50.9346 69.8359 52.6611 68.3125 54.7178 68.3125H67.375ZM96.2949 68.3125C98.3389 68.3125 100.078 69.8359 100.332 71.8672L101.271 79.4844C101.69 82.8359 102.808 86.0605 104.547 88.9551C106.807 92.7256 108 97.042 108 101.435V108.938C108 111.185 106.185 113 103.938 113H87.6875C85.4404 113 83.625 111.185 83.625 108.938V68.3125H96.2949ZM83.625 60.1875C83.625 57.9404 85.4404 56.125 87.6875 56.125H91.75C93.9971 56.125 95.8125 57.9404 95.8125 60.1875V64.25H83.625V60.1875ZM79.5625 68.3125V88.625H71.4375V68.3125H79.5625Z" fill="white"/>
</g>
<defs>
<clipPath id="clip0_1218_1209">
<rect width="151" height="130" fill="white"/>
</clipPath>
</defs>
</svg>
