<svg width="152" height="131" viewBox="0 0 152 131" fill="none" xmlns="http://www.w3.org/2000/svg">
<path d="M76 0L151.344 130.5H0.655762L76 0Z" fill="#74392A"/>
<path d="M101.219 59.7817L108.866 61.3102C109.276 61.3923 109.614 61.6934 109.732 62.0995C109.792 62.2967 109.798 62.5065 109.748 62.7066C109.698 62.9066 109.595 63.0894 109.45 63.2355L103.185 69.5044C102.435 70.2508 101.42 70.6706 100.361 70.6724H95.1643L82.1156 83.7257C82.3645 84.6657 82.4103 85.6479 82.2499 86.607C82.0895 87.5661 81.7265 88.4799 81.1852 89.2877C80.6439 90.0955 79.9366 90.7786 79.1106 91.2916C78.2845 91.8046 77.3587 92.1357 76.3946 92.2629C75.4306 92.39 74.4505 92.3102 73.5197 92.0289C72.589 91.7475 71.7288 91.271 70.9966 90.6312C70.2644 89.9914 69.677 89.2028 69.2734 88.3181C68.8698 87.4335 68.6594 86.4729 68.6562 85.5005C68.656 84.4504 68.8975 83.4142 69.3619 82.4723C69.8264 81.5305 70.5014 80.7081 71.3346 80.0689C72.1679 79.4297 73.1371 78.9909 74.1671 78.7864C75.1972 78.5819 76.2605 78.6171 77.2748 78.8895L90.3281 65.8316V60.644C90.3281 59.5855 90.7478 58.5681 91.4961 57.8199L97.765 51.551C97.9111 51.4056 98.0939 51.3025 98.2939 51.2527C98.494 51.2029 98.7038 51.2082 98.901 51.2681C99.3071 51.3867 99.6082 51.7244 99.6903 52.135L101.219 59.7817Z" fill="white"/>
<path d="M48.125 85.5002C48.1297 89.4147 48.9738 93.2826 50.6005 96.843C52.2271 100.404 54.5984 103.574 57.5544 106.14C60.5105 108.706 63.9824 110.608 67.7362 111.718C71.4899 112.829 75.438 113.121 79.3143 112.575C83.1906 112.03 86.9048 110.66 90.2064 108.557C93.508 106.454 96.3202 103.667 98.4533 100.385C100.586 97.1028 101.991 93.4013 102.572 89.5302C103.153 85.6591 102.897 81.7084 101.821 77.9447C101.67 77.505 101.61 77.0391 101.645 76.5755C101.68 76.1119 101.808 75.6602 102.023 75.2479C102.238 74.8356 102.535 74.4713 102.895 74.1773C103.255 73.8833 103.671 73.6657 104.118 73.5377C104.565 73.4097 105.034 73.3739 105.495 73.4327C105.956 73.4915 106.4 73.6435 106.801 73.8795C107.202 74.1155 107.55 74.4306 107.825 74.8055C108.1 75.1804 108.296 75.6074 108.4 76.0604C110.483 83.3491 110.087 91.1231 107.275 98.1627C104.463 105.202 99.3937 111.109 92.8622 114.957C86.3307 118.804 78.7067 120.375 71.1864 119.421C63.666 118.468 56.6748 115.046 51.3096 109.691C45.9502 104.327 42.524 97.3348 41.5687 89.8128C40.6134 82.2907 42.1833 74.6643 46.0318 68.1311C49.8803 61.5979 55.7896 56.5277 62.8317 53.7166C69.8739 50.9056 77.6502 50.5128 84.9398 52.6C85.8078 52.8537 86.54 53.4407 86.9765 54.2327C87.413 55.0247 87.5183 55.9573 87.2693 56.8266C87.0203 57.696 86.4373 58.4314 85.6478 58.8722C84.8582 59.313 83.9262 59.4234 83.0555 59.1791C78.9792 58.0086 74.6867 57.8012 70.5166 58.5732C66.3465 59.3453 62.4127 61.0757 59.0257 63.6279C55.6386 66.1801 52.8909 69.4844 50.9992 73.2801C49.1075 77.0759 48.1235 81.2592 48.125 85.5002Z" fill="white"/>
<path d="M61.8125 85.4999C61.8127 87.9937 62.4939 90.4402 63.7824 92.5753C65.0709 94.7105 66.9179 96.4533 69.1242 97.6158C71.3305 98.7783 73.8123 99.3164 76.3019 99.1721C78.7916 99.0277 81.1945 98.2064 83.2517 96.7967C85.3084 95.3834 86.9397 93.4347 87.969 91.1614C88.9983 88.888 89.3865 86.3765 89.0917 83.8985C89.0119 83.2972 89.0939 82.6854 89.3291 82.1263C89.5644 81.5672 89.9444 81.0809 90.4301 80.7174C90.9157 80.354 91.4895 80.1266 92.0923 80.0586C92.6951 79.9906 93.3051 80.0845 93.8595 80.3306C94.4138 80.5735 94.8937 80.9591 95.2504 81.448C95.6071 81.937 95.8277 82.5117 95.8898 83.1137C96.3855 87.3482 95.5508 91.632 93.5014 95.3705C91.452 99.109 88.2896 102.117 84.4532 103.976C80.6167 105.836 76.2965 106.455 72.0922 105.748C67.8879 105.041 64.008 103.042 60.9911 100.03C57.9741 97.0176 55.9697 93.1407 55.2562 88.9375C54.5426 84.7342 55.1552 80.4131 57.009 76.5739C58.8628 72.7346 61.8658 69.5676 65.6012 67.5126C69.3365 65.4575 73.619 64.6162 77.8542 65.1056C78.3077 65.1476 78.7483 65.2798 79.15 65.4944C79.5517 65.7089 79.9066 66.0015 80.1938 66.3549C80.481 66.7084 80.6948 67.1156 80.8225 67.5528C80.9503 67.9899 80.9895 68.4482 80.9379 68.9007C80.8863 69.3532 80.7448 69.7908 80.5219 70.188C80.2989 70.5851 79.9989 70.9337 79.6395 71.2134C79.28 71.4931 78.8684 71.6982 78.4286 71.8168C77.9889 71.9353 77.5299 71.9648 77.0786 71.9037C75.1608 71.681 73.2176 71.8666 71.3766 72.4482C69.5356 73.0298 67.8384 73.9944 66.3966 75.2785C64.9549 76.5625 63.801 78.1371 63.011 79.8987C62.2209 81.6604 61.8125 83.5692 61.8125 85.4999Z" fill="white"/>
</svg>
