<svg width="29" height="26" viewBox="0 0 29 26" fill="currentColor" xmlns="http://www.w3.org/2000/svg">
<path fill="currentColor" d="M27.3406 0.914052C27.0584 0.679758 26.7179 0.526323 26.3554 0.470063C25.993 0.413802 25.622 0.456818 25.2821 0.594536L1.81992 10.0661C1.44079 10.2219 1.118 10.4893 0.894424 10.8329C0.670843 11.1764 0.55704 11.5799 0.568122 11.9896C0.579204 12.3994 0.714647 12.796 0.956471 13.127C1.19829 13.458 1.53506 13.7076 1.92206 13.8427L6.98455 15.6L9.72794 24.6695C9.73317 24.6879 9.7502 24.6996 9.75805 24.7167C9.78668 24.7888 9.82792 24.8553 9.87984 24.9131C9.95965 25.0012 10.062 25.066 10.1758 25.1003C10.1889 25.1056 10.198 25.1174 10.2111 25.12H10.219L10.2229 25.1213C10.3242 25.143 10.4295 25.1375 10.528 25.1056L10.5608 25.099C10.6553 25.0656 10.7408 25.011 10.8109 24.9393C10.8187 24.9301 10.8318 24.9288 10.8397 24.9209L14.7852 20.5656L20.543 25.0244C20.8927 25.2981 21.3235 25.446 21.7674 25.446C22.7286 25.446 23.5575 24.773 23.7552 23.8341L28.0268 2.85865C28.0996 2.50256 28.0743 2.13335 27.9534 1.79057C27.8326 1.44779 27.6207 1.14435 27.3406 0.912743M11.1592 17.322L10.2334 21.8227L8.3019 15.435L17.8808 10.4458L11.3373 16.9907C11.2468 17.0813 11.1849 17.1965 11.1592 17.322ZM22.4719 23.5709C22.4473 23.6896 22.3926 23.8 22.313 23.8915C22.2335 23.983 22.1317 24.0525 22.0175 24.0933C21.906 24.1356 21.7855 24.1484 21.6676 24.1305C21.5497 24.1126 21.4384 24.0646 21.3444 23.9912L15.1073 19.1605C14.9769 19.0598 14.8134 19.012 14.6493 19.0266C14.4853 19.0412 14.3327 19.117 14.2221 19.2391L11.4761 22.2653L12.4006 17.7777L21.8145 8.36243C21.9248 8.25182 21.9919 8.10545 22.0037 7.94973C22.0155 7.79401 21.9712 7.6392 21.8789 7.51323C21.7866 7.38726 21.6523 7.29843 21.5003 7.26277C21.3483 7.22711 21.1885 7.24698 21.0498 7.31877L7.47954 14.3874L2.35027 12.6039C2.21468 12.5583 2.0965 12.4719 2.01188 12.3566C1.92726 12.2413 1.88034 12.1026 1.87754 11.9596C1.87062 11.8151 1.90907 11.672 1.98749 11.5503C2.06591 11.4287 2.18039 11.3346 2.31491 11.2813L25.7731 1.80974C25.8934 1.75927 26.0254 1.74307 26.1544 1.76295C26.2833 1.78283 26.4043 1.838 26.5038 1.92236C26.6029 2.00193 26.6777 2.10763 26.7198 2.2275C26.7619 2.34737 26.7697 2.47664 26.7421 2.60068L22.4719 23.5709Z"/>
</svg>
