<svg width="32" height="28" viewBox="0 0 32 28" fill="none" xmlns="http://www.w3.org/2000/svg">
<path d="M31.1267 5.81549C31.0498 5.71434 30.9506 5.63234 30.8368 5.57591C30.723 5.51947 30.5976 5.49014 30.4706 5.4902H6.26843L4.91098 0.602549C4.86271 0.429249 4.75902 0.276523 4.61576 0.167713C4.47249 0.0589044 4.29754 -1.29682e-06 4.11765 0H0.823529C0.605116 0 0.395648 0.0867644 0.241206 0.241206C0.0867645 0.395648 0 0.605116 0 0.823529C0 1.04194 0.0867645 1.25141 0.241206 1.40585C0.395648 1.56029 0.605116 1.64706 0.823529 1.64706H3.49176L8.37255 19.2006C8.55062 19.8347 8.93042 20.3935 9.45446 20.7925C9.97849 21.1915 10.6182 21.4089 11.2769 21.4118H24.8431C25.5027 21.41 26.1437 21.1932 26.6688 20.7941C27.194 20.3951 27.5746 19.8356 27.7529 19.2006L31.2708 6.53471C31.304 6.41184 31.3082 6.28296 31.2832 6.15817C31.2582 6.03338 31.2046 5.91608 31.1267 5.81549ZM26.158 18.76C26.078 19.0477 25.9063 19.3015 25.669 19.4828C25.4317 19.6641 25.1418 19.7631 24.8431 19.7647H11.2769C10.9771 19.7646 10.6855 19.6663 10.4468 19.4849C10.2082 19.3034 10.0354 19.0488 9.9551 18.76L6.72549 7.13726H29.3876L26.158 18.76ZM12.6274 26.0784C12.6274 26.4585 12.5148 26.83 12.3036 27.146C12.0925 27.462 11.7924 27.7083 11.4412 27.8537C11.0901 27.9992 10.7038 28.0372 10.331 27.9631C9.95825 27.8889 9.61586 27.7059 9.34713 27.4372C9.07839 27.1684 8.89538 26.8261 8.82124 26.4533C8.74709 26.0806 8.78514 25.6942 8.93058 25.3431C9.07602 24.992 9.32232 24.6919 9.63832 24.4807C9.95432 24.2696 10.3258 24.1569 10.7059 24.1569C11.2155 24.1569 11.7043 24.3593 12.0646 24.7197C12.425 25.08 12.6274 25.5688 12.6274 26.0784ZM26.902 26.0784C26.902 26.4585 26.7893 26.83 26.5781 27.146C26.367 27.462 26.0669 27.7083 25.7157 27.8537C25.3646 27.9992 24.9783 28.0372 24.6055 27.9631C24.2328 27.8889 23.8904 27.7059 23.6216 27.4372C23.3529 27.1684 23.1699 26.8261 23.0957 26.4533C23.0216 26.0806 23.0597 25.6942 23.2051 25.3431C23.3505 24.992 23.5968 24.6919 23.9128 24.4807C24.2288 24.2696 24.6003 24.1569 24.9804 24.1569C25.49 24.1569 25.9788 24.3593 26.3391 24.7197C26.6995 25.08 26.902 25.5688 26.902 26.0784Z"/>
</svg>
