<svg width="165" height="198" viewBox="0 0 165 198" fill="none" xmlns="http://www.w3.org/2000/svg">
<path d="M105.548 106.043C102.946 109.34 101.335 113.355 100.383 117.727C100.063 118.821 98.803 125.742 98.842 130.832L98.8532 132.287C98.8922 137.377 100.261 144.636 100.598 145.724C101.614 149.714 103.286 153.698 105.938 156.946C111.903 164.162 121.097 164.076 128.621 160.369C136.801 156.656 143.994 152.589 151.175 147.067C156.723 142.651 164.567 137.85 164.514 130.942C164.461 124.034 156.545 119.381 150.927 114.707C143.99 109.318 136.408 105.389 128.172 101.83C120.595 98.629 111.402 98.7155 105.548 106.043Z" fill="#4E3D94"/>
<path d="M81.2449 195.352C82.6699 196.508 84.3455 197.148 86.1395 197.449C86.5914 197.565 89.4215 197.921 91.4661 197.706L92.0502 197.645C94.0948 197.431 96.9602 196.478 97.3845 196.27C98.9495 195.616 100.487 194.639 101.69 193.207C104.362 189.99 103.975 185.462 102.196 181.895C100.39 178.005 98.4794 174.616 95.9845 171.288C93.9968 168.722 91.7663 165.04 88.9915 165.331C86.2168 165.622 84.6503 169.703 82.9869 172.651C81.0868 176.277 79.7985 180.165 78.6839 184.362C77.6877 188.219 78.0751 192.747 81.2449 195.352Z" fill="#74392A"/>
<path d="M62.7253 1.13167C57.0278 -0.529008 51.1213 -0.249895 45.2209 1.24074C43.6905 1.49258 34.5143 4.21518 28.405 7.6456L26.6595 8.62572C20.5501 12.0561 12.7076 18.8897 11.6198 20.108C7.48341 24.2531 3.78957 29.3647 1.6323 35.4359C-3.11247 49.0349 3.08302 62.5657 12.536 71.23C22.4314 80.8608 32.0995 88.7968 43.513 95.7527C52.5111 101.027 63.4945 109.44 71.7857 104.784C80.0768 100.129 80.4394 85.3455 82.3507 73.945C84.2498 60.1214 83.9608 46.3115 82.7929 31.7801C81.6312 18.4603 75.4357 4.92945 62.7253 1.13167Z" fill="#B05D48"/>
<path d="M154.453 58.833C153.655 56.0274 152.138 53.6001 150.206 51.4668C149.751 50.8811 146.606 47.6606 143.956 45.9055L143.198 45.4041C140.547 43.6491 136.308 41.9806 135.627 41.8142C133.204 41.0643 130.556 40.7337 127.946 41.2829C122.122 42.5498 118.952 48.4206 118.242 54.4966C117.305 60.992 116.897 66.9837 117.247 73.4769C117.595 78.5456 117.339 85.2073 120.937 87.5891C124.534 89.971 129.712 86.5685 134.098 84.6337C139.315 82.111 144.002 78.6675 148.725 74.6793C153.033 70.9851 156.202 65.1143 154.453 58.833Z" fill="#A38FF0"/>
</svg>
