<svg width="20" height="30" viewBox="0 0 19 34" fill="none" xmlns="http://www.w3.org/2000/svg">
<path fill-rule="evenodd" clip-rule="evenodd" d="M3.616 16.6072C8.44573 11.7628 13.1663 7.03388 17.7776 2.42464C18.019 2.1709 18.1536 1.83409 18.1536 1.48389C18.1536 1.13369 18.019 0.796881 17.7776 0.543144C17.1245 -0.183416 16.0914 -0.120419 15.621 0.375153C10.8417 5.16708 5.84187 10.1753 0.621565 15.4019C0.207888 15.7421 0 16.1453 0 16.6072C0 17.0713 0.207888 17.485 0.621565 17.8504L16.335 33.1921C16.6364 33.4694 17.0341 33.6182 17.4435 33.6068C17.8529 33.5954 18.2417 33.4248 18.5273 33.1312C19.279 32.3774 18.9892 31.634 18.6491 31.2812C13.6302 26.3973 8.62053 21.5059 3.616 16.6072Z" fill="white"/>
</svg>
