<svg width="81" height="36" viewBox="0 0 81 36" fill="none" xmlns="http://www.w3.org/2000/svg">
<path d="M33.6442 3.24313H35.5233L43.4087 24.7854L43.0396 24.6847L48.0057 11.2628L48.7774 13.3767L43.0396 28.1073L33.6442 3.24313ZM44.6166 3.24313H46.2608L54.4482 24.7854L53.9449 24.6512L61.931 3.24313H63.6758L54.1127 28.0738L44.6166 3.24313Z" fill="#6148C7"/>
<path d="M36.6442 3.24313H38.5233L46.4087 24.7854L46.0396 24.6847L51.0057 11.2628L51.7774 13.3767L46.0396 28.1073L36.6442 3.24313ZM47.6166 3.24313H49.2608L57.4482 24.7854L56.9449 24.6512L64.931 3.24313H66.6758L57.1127 28.0738L47.6166 3.24313Z" fill="#6148C7"/>
<path d="M33.4494 2.80927C35.4967 2.8808 37.5582 3.69664 37.7414 5.65515L37.9134 9.5549C38.9328 9.62088 38.8896 11.6824 37.8888 11.8119L38.0368 13.7988L42.2307 11.7144L42.206 10.734L44.2422 9.53147L46.1064 12.2294L43.8741 13.7254L42.991 13.2598L39.1393 15.5655C41.6054 19.004 41.7281 22.3154 38.1823 25.4271L40.1945 26.4076C42.1061 27.4467 40.6539 27.6428 39.2133 26.9478C40.0206 28.0812 38.1219 27.4645 36.833 27.2425C35.3728 28.9199 34.8844 27.3585 34.1598 26.5796L32.4184 26.629L31.6821 27.6835C30.8743 28.4697 30.204 27.9535 29.5238 27.5367C28.6561 27.5836 27.6991 28.4358 26.948 27.438C26.4423 27.3209 24.2316 28.1595 26.113 26.703L28.6167 25.6232C22.833 24.7697 22.2706 19.0749 24.9617 17.3069C26.0119 15.8195 26.7143 14.9186 28.42 14.5597L28.7634 11.469C27.8348 11.358 27.8681 9.57833 28.9842 9.6289L29.1316 5.06562C29.197 4.04382 31.0574 2.88943 33.4494 2.80927Z" fill="white" stroke="black" stroke-width="0.616659" stroke-linecap="round" stroke-linejoin="round"/>
<path d="M28.7708 11.4748L32.0823 13.8786H35.0262L37.8961 11.8183M28.4273 14.5655C30.5203 16.0098 32.8796 17.3282 31.6167 20.3547C31.2495 20.1143 30.9358 19.8007 30.6951 19.4336C30.4545 19.0665 30.2921 18.6537 30.2181 18.2211C30.117 19.2731 29.5786 20.3708 28.5254 19.7424L24.9691 17.3134M28.624 25.6284C30.5196 25.3534 31.9824 23.8487 31.7394 21.9981L34.3398 18.2451L39.1479 15.5713" fill="white"/>
<path d="M28.7708 11.4748L32.0823 13.8786H35.0262L37.8961 11.8183M28.4273 14.5655C30.5203 16.0098 32.8796 17.3282 31.6167 20.3547C31.2495 20.1143 30.9358 19.8007 30.6951 19.4336C30.4545 19.0665 30.2921 18.6537 30.2181 18.2211C30.117 19.2731 29.5786 20.3708 28.5254 19.7424L24.9691 17.3134M28.624 25.6284C30.5196 25.3534 31.9824 23.8487 31.7394 21.9981L34.3398 18.2451L39.1479 15.5713" stroke="black" stroke-width="0.616659" stroke-linecap="round" stroke-linejoin="round"/>
<path d="M38.0364 13.7983L32.8842 16.6442L31.5109 16.8415M40.6362 21.9918C38.4674 21.1822 36.3566 20.2936 35.5339 17.6259L40.6362 21.9918ZM40.8317 19.0374C39.1155 18.3973 37.6405 18.6754 36.9899 16.564L40.8317 19.0374ZM28.9838 9.62844L31.3142 9.65311C31.5596 8.11762 35.6258 8.28104 35.7294 9.60377L37.9124 9.55444" fill="white"/>
<path d="M38.0364 13.7983L32.8842 16.6442L31.5109 16.8415M40.6362 21.9918C38.4674 21.1822 36.3566 20.2936 35.534 17.6259M40.8317 19.0374C39.1155 18.3973 37.6405 18.6754 36.9899 16.564M28.9838 9.62844L31.3142 9.65311C31.5596 8.11762 35.6258 8.28104 35.7294 9.60377L37.9124 9.55444" stroke="black" stroke-width="0.616659" stroke-linecap="round" stroke-linejoin="round"/>
<mask id="path-8-outside-1_192_1233" maskUnits="userSpaceOnUse" x="6.78378" y="2" width="23" height="27" fill="black">
<rect fill="white" x="6.78378" y="2" width="23" height="27"/>
<path d="M29.2001 25.6894C28.8782 26.0113 28.3954 26.3217 27.7517 26.6205C27.1309 26.9194 26.4297 27.1953 25.648 27.4482C24.8663 27.7011 24.0616 27.8965 23.2339 28.0345C22.4063 28.1954 21.6246 28.2759 20.8889 28.2759C18.8657 28.2759 17.0379 27.9655 15.4055 27.3448C13.7961 26.724 12.4052 25.8733 11.2326 24.7928C10.0831 23.6892 9.19794 22.3902 8.57719 20.8958C7.97942 19.4014 7.68054 17.7805 7.68054 16.0332C7.68054 13.849 8.0254 11.9293 8.71513 10.2739C9.40486 8.59561 10.3475 7.19316 11.543 6.0666C12.7386 4.91705 14.1065 4.05489 15.6469 3.48011C17.2103 2.90534 18.8542 2.61795 20.5785 2.61795C22.0959 2.61795 23.4983 2.79038 24.7858 3.13525C26.0963 3.48011 27.2114 3.91694 28.131 4.44573L26.8205 8.17027C26.3837 7.91737 25.8204 7.67597 25.1307 7.44606C24.441 7.19316 23.7397 6.99773 23.027 6.85979C22.3373 6.72184 21.6935 6.65287 21.0958 6.65287C19.6473 6.65287 18.3484 6.85979 17.1988 7.27362C16.0723 7.66447 15.1066 8.25074 14.3019 9.03244C13.4973 9.81413 12.8765 10.7683 12.4397 11.8948C12.0258 12.9984 11.8189 14.2629 11.8189 15.6883C11.8189 16.9758 12.0373 18.1484 12.4742 19.2059C12.934 20.2635 13.5662 21.1717 14.3709 21.9304C15.1986 22.6891 16.1642 23.2754 17.2678 23.6892C18.3943 24.08 19.6359 24.2755 20.9923 24.2755C21.774 24.2755 22.5327 24.2065 23.2684 24.0685C24.0041 23.9306 24.6249 23.7122 25.1307 23.4133V19.2404H20.4405V15.3779H29.2001V25.6894Z"/>
</mask>
<path d="M29.2001 25.6894C28.8782 26.0113 28.3954 26.3217 27.7517 26.6205C27.1309 26.9194 26.4297 27.1953 25.648 27.4482C24.8663 27.7011 24.0616 27.8965 23.2339 28.0345C22.4063 28.1954 21.6246 28.2759 20.8889 28.2759C18.8657 28.2759 17.0379 27.9655 15.4055 27.3448C13.7961 26.724 12.4052 25.8733 11.2326 24.7928C10.0831 23.6892 9.19794 22.3902 8.57719 20.8958C7.97942 19.4014 7.68054 17.7805 7.68054 16.0332C7.68054 13.849 8.0254 11.9293 8.71513 10.2739C9.40486 8.59561 10.3475 7.19316 11.543 6.0666C12.7386 4.91705 14.1065 4.05489 15.6469 3.48011C17.2103 2.90534 18.8542 2.61795 20.5785 2.61795C22.0959 2.61795 23.4983 2.79038 24.7858 3.13525C26.0963 3.48011 27.2114 3.91694 28.131 4.44573L26.8205 8.17027C26.3837 7.91737 25.8204 7.67597 25.1307 7.44606C24.441 7.19316 23.7397 6.99773 23.027 6.85979C22.3373 6.72184 21.6935 6.65287 21.0958 6.65287C19.6473 6.65287 18.3484 6.85979 17.1988 7.27362C16.0723 7.66447 15.1066 8.25074 14.3019 9.03244C13.4973 9.81413 12.8765 10.7683 12.4397 11.8948C12.0258 12.9984 11.8189 14.2629 11.8189 15.6883C11.8189 16.9758 12.0373 18.1484 12.4742 19.2059C12.934 20.2635 13.5662 21.1717 14.3709 21.9304C15.1986 22.6891 16.1642 23.2754 17.2678 23.6892C18.3943 24.08 19.6359 24.2755 20.9923 24.2755C21.774 24.2755 22.5327 24.2065 23.2684 24.0685C24.0041 23.9306 24.6249 23.7122 25.1307 23.4133V19.2404H20.4405V15.3779H29.2001V25.6894Z" fill="#282828"/>
<path d="M29.2001 25.6894L29.5368 26.0261L29.6763 25.8867V25.6894H29.2001ZM27.7517 26.6205L27.5511 26.1886L27.5451 26.1915L27.7517 26.6205ZM25.648 27.4482L25.5014 26.9951L25.648 27.4482ZM23.2339 28.0345L23.1556 27.5646L23.143 27.567L23.2339 28.0345ZM15.4055 27.3448L15.2341 27.7891L15.2362 27.7899L15.4055 27.3448ZM11.2326 24.7928L10.9028 25.1364L10.9099 25.143L11.2326 24.7928ZM8.57719 20.8958L8.13498 21.0727L8.13739 21.0785L8.57719 20.8958ZM8.71513 10.2739L9.15473 10.4571L9.15561 10.455L8.71513 10.2739ZM11.543 6.0666L11.8696 6.41321L11.8731 6.40988L11.543 6.0666ZM15.6469 3.48011L15.4826 3.03313L15.4804 3.03393L15.6469 3.48011ZM24.7858 3.13525L24.6626 3.59526L24.6646 3.59579L24.7858 3.13525ZM28.131 4.44573L28.5803 4.6038L28.7117 4.23027L28.3684 4.03289L28.131 4.44573ZM26.8205 8.17027L26.5819 8.58241L27.0791 8.87024L27.2698 8.32833L26.8205 8.17027ZM25.1307 7.44606L24.9667 7.89337L24.9801 7.89785L25.1307 7.44606ZM23.027 6.85979L22.9336 7.32677L22.9365 7.32734L23.027 6.85979ZM17.1988 7.27362L17.3549 7.72357L17.3601 7.7217L17.1988 7.27362ZM14.3019 9.03244L14.6338 9.37402L14.6338 9.37402L14.3019 9.03244ZM12.4397 11.8948L11.9956 11.7226L11.9938 11.7276L12.4397 11.8948ZM12.4742 19.2059L12.0339 19.3878L12.0374 19.3958L12.4742 19.2059ZM14.3709 21.9304L14.0442 22.2769L14.0491 22.2814L14.3709 21.9304ZM17.2678 23.6892L17.1005 24.1352L17.1117 24.1391L17.2678 23.6892ZM23.2684 24.0685L23.1807 23.6005L23.1807 23.6005L23.2684 24.0685ZM25.1307 23.4133L25.373 23.8233L25.6069 23.685V23.4133H25.1307ZM25.1307 19.2404H25.6069V18.7642H25.1307V19.2404ZM20.4405 19.2404H19.9643V19.7167H20.4405V19.2404ZM20.4405 15.3779V14.9017H19.9643V15.3779H20.4405ZM29.2001 15.3779H29.6763V14.9017H29.2001V15.3779ZM28.8634 25.3527C28.5967 25.6194 28.1693 25.9016 27.5511 26.1886L27.9522 27.0525C28.6215 26.7417 29.1598 26.4032 29.5368 26.0261L28.8634 25.3527ZM27.5451 26.1915C26.947 26.4794 26.2664 26.7476 25.5014 26.9951L25.7946 27.9013C26.593 27.643 27.3148 27.3594 27.9583 27.0496L27.5451 26.1915ZM25.5014 26.9951C24.7425 27.2406 23.9607 27.4306 23.1557 27.5647L23.3122 28.5042C24.1626 28.3625 24.9901 28.1616 25.7946 27.9013L25.5014 26.9951ZM23.143 27.567C22.3411 27.723 21.59 27.7997 20.8889 27.7997V28.7521C21.6591 28.7521 22.4715 28.6679 23.3248 28.502L23.143 27.567ZM20.8889 27.7997C18.9145 27.7997 17.1452 27.4968 15.5748 26.8996L15.2362 27.7899C16.9305 28.4342 18.8168 28.7521 20.8889 28.7521V27.7997ZM15.5769 26.9004C14.0188 26.2995 12.6804 25.4793 11.5554 24.4426L10.9099 25.143C12.13 26.2674 13.5734 27.1485 15.2341 27.7891L15.5769 26.9004ZM11.5624 24.4492C10.461 23.3918 9.61296 22.1479 9.01698 20.7131L8.13739 21.0785C8.78293 22.6325 9.70519 23.9865 10.9028 25.1363L11.5624 24.4492ZM9.01935 20.7189C8.44595 19.2854 8.15677 17.7251 8.15677 16.0332H7.20431C7.20431 17.8359 7.5129 19.5173 8.13502 21.0727L9.01935 20.7189ZM8.15677 16.0332C8.15677 13.8986 8.49383 12.0433 9.15473 10.4571L8.27554 10.0908C7.55697 11.8153 7.20431 13.7995 7.20431 16.0332H8.15677ZM9.15561 10.455C9.82231 8.83268 10.7283 7.48863 11.8696 6.41319L11.2164 5.72C9.96664 6.89769 8.98742 8.35853 8.27465 10.0929L9.15561 10.455ZM11.8731 6.40988C13.0221 5.30504 14.3345 4.4781 15.8134 3.92629L15.4804 3.03393C13.8785 3.63167 12.455 4.52905 11.2129 5.72332L11.8731 6.40988ZM15.8112 3.92709C17.3202 3.37234 18.9082 3.09417 20.5785 3.09417V2.14172C18.8001 2.14172 17.1004 2.43833 15.4826 3.03314L15.8112 3.92709ZM20.5785 3.09417C22.0599 3.09417 23.4204 3.26252 24.6626 3.59526L24.9091 2.67524C23.5763 2.31824 22.1319 2.14172 20.5785 2.14172V3.09417ZM24.6646 3.59579C25.9451 3.93276 27.0189 4.3556 27.8936 4.85858L28.3684 4.03289C27.4039 3.47828 26.2475 3.02746 24.907 2.6747L24.6646 3.59579ZM27.6818 4.28767L26.3713 8.01221L27.2698 8.32833L28.5803 4.6038L27.6818 4.28767ZM27.0591 7.75813C26.5852 7.48372 25.9895 7.23034 25.2813 6.99427L24.9801 7.89785C25.6514 8.1216 26.1823 8.35102 26.5819 8.58241L27.0591 7.75813ZM25.2946 6.99894C24.5813 6.73738 23.8555 6.53508 23.1175 6.39224L22.9365 7.32734C23.624 7.46039 24.3006 7.64893 24.9668 7.89317L25.2946 6.99894ZM23.1204 6.39281C22.4052 6.24976 21.7298 6.17664 21.0958 6.17664V7.12909C21.6573 7.12909 22.2694 7.19392 22.9336 7.32676L23.1204 6.39281ZM21.0958 6.17664C19.6023 6.17664 18.2474 6.38999 17.0375 6.82555L17.3601 7.7217C18.4493 7.32959 19.6924 7.12909 21.0958 7.12909V6.17664ZM17.0427 6.82371C15.8546 7.23591 14.8279 7.85761 13.9701 8.69085L14.6338 9.37402C15.3854 8.64388 16.2899 8.09303 17.3549 7.72354L17.0427 6.82371ZM13.9701 8.69085C13.1126 9.52388 12.4553 10.5372 11.9957 11.7226L12.8837 12.067C13.2977 10.9993 13.8819 10.1044 14.6338 9.37402L13.9701 8.69085ZM11.9938 11.7276C11.5562 12.8945 11.3427 14.2174 11.3427 15.6883H12.2951C12.2951 14.3084 12.4955 13.1022 12.8856 12.062L11.9938 11.7276ZM11.3427 15.6883C11.3427 17.0304 11.5706 18.2657 12.034 19.3878L12.9143 19.0241C12.5041 18.031 12.2951 16.9212 12.2951 15.6883H11.3427ZM12.0374 19.3958C12.5218 20.51 13.1906 21.4721 14.0442 22.2769L14.6976 21.5839C13.9418 20.8713 13.3461 20.0171 12.9109 19.0161L12.0374 19.3958ZM14.0491 22.2814C14.924 23.0834 15.9428 23.7009 17.1006 24.1351L17.435 23.2433C16.3857 22.8498 15.4732 22.2948 14.6927 21.5793L14.0491 22.2814ZM17.1117 24.1391C18.2948 24.5496 19.5899 24.7517 20.9923 24.7517V23.7992C19.6818 23.7992 18.4938 23.6105 17.4239 23.2393L17.1117 24.1391ZM20.9923 24.7517C21.8022 24.7517 22.5903 24.6802 23.3562 24.5366L23.1807 23.6005C22.4751 23.7328 21.7459 23.7992 20.9923 23.7992V24.7517ZM23.3562 24.5366C24.1321 24.3911 24.8084 24.1569 25.373 23.8233L24.8884 23.0033C24.4414 23.2674 23.8761 23.4701 23.1807 23.6005L23.3562 24.5366ZM25.6069 23.4133V19.2404H24.6545V23.4133H25.6069ZM25.1307 18.7642H20.4405V19.7167H25.1307V18.7642ZM20.9168 19.2404V15.3779H19.9643V19.2404H20.9168ZM20.4405 15.8542H29.2001V14.9017H20.4405V15.8542ZM28.7239 15.3779V25.6894H29.6763V15.3779H28.7239Z" fill="#83ED98" mask="url(#path-8-outside-1_192_1233)"/>
<path d="M32.8624 17.4835C32.9191 17.3559 33.3238 17.2234 33.4508 17.1425C33.5595 17.0734 33.7181 16.9879 33.8413 16.95C33.9697 16.9105 33.4812 17.2051 33.4701 17.2553C33.4502 17.3449 34.1875 17.1585 34.2373 17.137C34.6891 16.9418 34.965 16.5023 35.4472 16.3176C35.684 16.2269 36.2681 16.1463 36.4124 15.9299C36.4334 15.8984 36.0386 16.0405 36.0191 16.0481C35.795 16.1353 35.5655 16.2254 35.3235 16.2433C35.1963 16.2528 35.0844 16.2789 34.9907 16.3726C34.9716 16.3917 35.3192 16.2712 35.3977 16.2488C35.5471 16.2062 35.1311 16.4199 34.9797 16.4551C34.835 16.4887 34.5479 16.6082 34.4518 16.7163C34.3416 16.8402 34.7877 16.5469 34.8642 16.5156C35.1485 16.3993 35.4528 16.3065 35.7277 16.1691C36.454 15.8059 37.2402 15.4951 37.999 15.1957C38.2267 15.1058 38.4796 15.0432 38.6974 14.9317C38.9736 14.7903 39.1911 14.5616 39.4674 14.4202C39.768 14.2664 40.0557 14.0928 40.3528 13.9308C40.917 13.623 39.8251 14.0753 39.7231 14.1178C39.2254 14.3247 38.759 14.5573 38.2795 14.7997C37.9487 14.9669 37.6088 15.1383 37.2593 15.2617C37.0769 15.3261 36.7681 15.4177 36.6241 15.5531C36.5875 15.5876 36.8679 15.3489 36.9513 15.3112C37.3435 15.134 37.7841 15.0239 38.186 14.8547C38.5325 14.7088 38.8788 14.3813 39.1704 14.1453C39.1959 14.1246 39.4638 13.9693 39.3959 13.9693C39.3351 13.9693 39.1787 14.0625 39.1264 14.0958C38.8852 14.2492 38.6118 14.5307 38.3345 14.61C37.9667 14.715 37.6594 15.0582 37.2675 15.0582" stroke="#74392A" stroke-linecap="round"/>
<path d="M37.2181 15.1077C37.0871 15.4351 36.6096 15.4935 36.3271 15.6549C35.9846 15.8506 35.6386 16.0762 35.3262 16.3176C35.2321 16.3903 35.0779 16.5472 34.9715 16.5898C34.6304 16.7263 35.5886 16.1871 35.9202 16.0289C36.1934 15.8984 36.5091 15.6521 36.8221 15.6521" stroke="#74392A" stroke-linecap="round"/>
<path d="M38.3565 14.8602C39.4658 14.5189 40.303 13.6037 41.3317 13.0893C41.6302 12.9401 40.7393 13.3966 40.4408 13.5458C40.1434 13.6945 39.3304 14.2709 39.5829 14.0545C39.883 13.7972 40.2472 13.626 40.6113 13.4716C40.9574 13.3247 41.2626 13.1379 41.5957 12.9684C41.9869 12.7692 42.3445 12.5298 42.7286 12.3194C43.1174 12.1065 42.0591 12.9105 41.6727 13.1278C41.3586 13.3045 41.0224 13.4935 40.7405 13.719C40.569 13.8563 40.7619 13.8242 40.867 13.7575C41.0987 13.6106 41.3397 13.4407 41.5517 13.2653C42.0264 12.8728 42.5068 12.4499 43.0091 12.0912C43.117 12.0141 43.6224 11.603 43.1906 11.7035C43.1024 11.724 42.8606 12.0402 42.8606 11.7915C42.8606 11.5451 42.7606 10.97 43.1081 10.9005C43.2816 10.8658 43.9495 10.7634 43.9495 10.5293C43.9495 10.2732 44.2793 10.6363 44.3345 10.7245C44.425 10.8694 44.552 10.8763 44.6535 10.9995C44.8082 11.1875 45.0412 11.3433 45.2144 11.5165C45.2968 11.5988 45.5043 11.7132 45.5251 11.8382C45.5311 11.8737 45.1069 12.0349 45.0384 12.0389C44.7027 12.0587 44.5131 12.5034 44.2217 12.6329C44.1085 12.6832 44.0455 12.8508 43.9248 12.8776C43.7004 12.9275 43.6289 12.8638 43.4161 12.7429C43.1032 12.5651 43.2901 12.5582 43.5233 12.3387C43.6941 12.1779 43.9282 12.0909 44.0485 11.8904" stroke="#74392A" stroke-linecap="round"/>
<path d="M43.9495 11.7914C43.9959 11.4207 44.8084 12.0562 44.3675 11.7254C44.1563 11.567 43.9391 11.4841 43.7515 11.2965" stroke="#74392A" stroke-linecap="round"/>
<path d="M44.197 11.346C44.0084 11.1783 43.746 11.3694 43.6031 11.4945" stroke="#74392A" stroke-linecap="round"/>
<path d="M43.3061 12.6329C42.9804 12.7331 42.7174 13.0288 42.3656 13.0288" stroke="#74392A" stroke-linecap="round"/>
<path d="M42.3656 12.5834C42.1043 12.5834 41.9999 12.5801 41.7882 12.7071C41.6 12.82 41.0757 12.8377 40.9798 13.0536C40.8794 13.2793 40.6111 13.552 40.3583 13.5761C40.1987 13.5913 40.0609 13.6723 39.9018 13.6723C39.6594 13.6723 39.8577 13.7323 40.0173 13.6503C40.2852 13.5127 40.5475 13.2224 40.8313 13.1278" stroke="#74392A" stroke-linecap="round"/>
<path d="M39.6434 14.0683C39.4553 14.319 39.0967 14.3356 38.8267 14.4395C38.7334 14.4754 38.5776 14.4241 38.5159 14.5137C38.4486 14.6116 38.253 14.6468 38.1475 14.7117C37.7891 14.9323 38.5423 14.6933 38.6012 14.5852C38.6423 14.5099 38.8935 14.3453 38.6782 14.368C38.5288 14.3837 38.4528 14.5109 38.3565 14.6072C38.2494 14.7143 38.0428 14.798 37.911 14.8712C37.7763 14.946 37.67 15.0144 37.5178 15.0829C37.3619 15.1531 37.1832 15.2144 37.2208 15.4212C37.2557 15.6132 38.1623 15.0415 37.9 15.2067C37.6358 15.373 37.4735 15.6303 37.218 15.8006" stroke="#74392A" stroke-linecap="round"/>
<path d="M37.317 15.4047C37.4871 15.5535 37.6501 15.0222 37.713 14.9592" stroke="#74392A" stroke-linecap="round"/>
<path d="M38.505 14.8107C38.263 15.0678 37.8919 15.4541 37.515 15.4541" stroke="#74392A" stroke-linecap="round"/>
<path d="M38.0595 15.0087C37.9471 15.0227 37.5656 15.4137 37.625 15.3662C37.7141 15.2949 37.8749 15.2753 37.9605 15.1847C38.022 15.1195 38.0076 15.0474 38.109 15.0197C38.1893 14.9978 38.2585 14.9918 38.208 15.0802C38.0968 15.2748 37.7291 15.3243 37.614 15.5257C37.5922 15.5639 37.4604 15.6107 37.5013 15.5944C37.613 15.5497 37.7137 15.4591 37.8258 15.4074C37.9405 15.3544 38.0372 15.2673 38.1585 15.2067" stroke="#74392A" stroke-linecap="round"/>
<path d="M38.2079 14.5304C38.2079 14.6198 38.1236 14.5976 38.0677 14.6442C38.0169 14.6865 37.962 14.7322 37.9155 14.7735C37.8041 14.8725 37.6751 14.952 37.5472 15.0287" stroke="#74392A" stroke-linecap="round"/>
<path d="M37.8505 14.6821C37.7937 14.66 37.7363 14.7412 37.7012 14.7772C37.6646 14.8147 37.619 14.856 37.5905 14.8987" stroke="#74392A" stroke-linecap="round"/>
<path d="M38.3488 15.1587C38.3715 15.1519 38.3924 15.1188 38.4137 15.1045" stroke="#74392A" stroke-linecap="round"/>
<path d="M38.9554 14.7687C39.0564 14.7238 39.1384 14.6298 39.2268 14.5635C39.2977 14.5103 39.3939 14.4967 39.4645 14.4438" stroke="#74392A" stroke-linecap="round"/>
<path d="M37.0056 15.8194C36.9883 15.8625 36.8724 15.8915 36.8323 15.9193C36.807 15.9368 36.7836 15.953 36.7649 15.9771C36.7561 15.9884 36.7284 15.9805 36.7155 15.9843C36.6837 15.9938 36.6429 16.0208 36.6156 16.0385C36.5734 16.0659 36.5209 16.0745 36.4772 16.1011C36.378 16.1613 36.2701 16.2006 36.1739 16.2696C36.0971 16.3246 35.9861 16.3454 35.9007 16.3875C35.8843 16.3956 35.7234 16.4712 35.8008 16.4694C35.8665 16.4678 35.9666 16.441 36.0223 16.3996C36.0658 16.3672 36.1158 16.3595 36.1631 16.331C36.1849 16.3178 36.2913 16.2588 36.2666 16.2792C36.2004 16.3338 36.1334 16.3868 36.0572 16.426C35.9002 16.5067 35.7682 16.6363 35.6034 16.6993C35.4852 16.7445 35.3613 16.7932 35.2508 16.8485" stroke="#74392A" stroke-linecap="round"/>
<path d="M36.204 15.8411C36.2692 15.7579 36.3316 15.6724 36.3972 15.5896C36.4211 15.5592 36.4573 15.5238 36.464 15.4836C36.4676 15.4618 36.5801 15.3882 36.5506 15.462" stroke="#74392A" stroke-linecap="round"/>
<path d="M36.5181 15.5161C36.402 15.6681 36.2913 15.767 36.1149 15.8435C35.982 15.9012 35.8493 15.9695 35.7129 16.0186C35.6858 16.0284 35.6866 16.0232 35.7045 16.0024C35.7377 15.9639 35.7749 15.9232 35.8225 15.9025C35.8459 15.8923 35.8724 15.8931 35.8959 15.8832C35.9305 15.8687 35.959 15.8418 35.994 15.8273C36.1575 15.7591 35.6876 16.006 35.542 16.1071C35.4736 16.1546 35.3961 16.182 35.3242 16.2226C35.299 16.2369 35.2702 16.2485 35.2484 16.2678C35.2279 16.2858 35.2862 16.2293 35.2941 16.2214C35.3391 16.1765 35.4087 16.1455 35.4608 16.1083C35.48 16.0946 35.5698 16.021 35.5059 16.0758C35.3934 16.1722 35.2701 16.248 35.1388 16.3165C34.9935 16.3923 34.8419 16.4353 34.6923 16.4995C34.532 16.5682 34.3805 16.6549 34.2301 16.7426C34.1604 16.7833 34.0847 16.791 34.0165 16.8274C33.9985 16.837 33.9662 16.8555 33.9581 16.8762C33.9556 16.8826 34.0098 16.881 34.0159 16.881" stroke="#74392A" stroke-linecap="round"/>
<path d="M34.7417 17.1735C34.7309 17.1304 34.6204 17.1938 34.6165 17.2252C34.6163 17.2266 34.6377 17.2087 34.6382 17.2084C34.6588 17.1933 34.6835 17.1804 34.7068 17.1699C34.7493 17.1506 34.7997 17.1302 34.8343 17.0976C34.8574 17.0759 34.8836 17.058 34.9102 17.0399C34.9453 17.0158 35.0201 17.0236 35.0438 16.9833C35.0627 16.9511 34.9669 16.9893 34.9342 17.0074C34.8991 17.0268 34.8576 17.0412 34.8259 17.0651C34.6596 17.1908 34.46 17.2633 34.2891 17.3793C34.2242 17.4233 34.1605 17.4631 34.1002 17.5141C33.9911 17.6061 33.8737 17.6611 33.7499 17.7271C33.6431 17.7841 33.5367 17.8492 33.4376 17.9197C33.3213 18.0024 33.1924 18.0603 33.1 18.1712C33.0137 18.2748 32.9315 18.3813 32.8846 18.5088C32.8816 18.5169 32.8794 18.3858 32.8779 18.356C32.8756 18.3076 32.8626 18.2553 32.846 18.2097C32.7881 18.0503 32.7691 17.8599 32.683 17.7091C32.6508 17.6528 32.6352 17.5903 32.5915 17.5418C32.5688 17.5166 32.5269 17.5052 32.5066 17.4792C32.4896 17.4573 32.5543 17.5076 32.5776 17.5225C32.6089 17.5424 32.6435 17.5567 32.6703 17.5827C32.7934 17.7015 32.8531 17.8398 32.8966 18.0027C32.9306 18.1302 32.9871 18.2625 32.9604 18.3975C32.9447 18.4765 32.8914 18.555 32.8617 18.631C32.8323 18.7061 32.8033 18.7818 32.7594 18.85C32.7147 18.9194 32.6594 18.9834 32.6222 19.057C32.6079 19.0852 32.5958 19.1135 32.5837 19.1425C32.5811 19.1485 32.5634 19.1587 32.5692 19.1557C32.6414 19.1197 32.6849 19.0591 32.7377 19.0005C32.7947 18.9373 32.8488 18.8777 32.9002 18.8091C32.9852 18.6958 33.0734 18.5845 33.1493 18.4649C33.1861 18.407 33.237 18.359 33.2697 18.2988C33.2932 18.2555 33.3043 18.2154 33.3233 18.1712C33.3447 18.1211 33.3895 18.0849 33.4153 18.0406C33.4334 18.0096 33.4567 17.9659 33.4797 17.9377C33.4923 17.9223 33.5036 17.9025 33.5224 17.8944C33.5317 17.8904 33.5166 17.9139 33.5116 17.9227C33.4956 17.9509 33.4889 17.98 33.4773 18.0099C33.445 18.0935 33.3828 18.1615 33.3437 18.2416C33.3096 18.3116 33.2656 18.3695 33.2264 18.4354C33.1294 18.5985 33.0296 18.7269 32.8888 18.8536C32.8427 18.8951 32.8163 18.9568 32.7756 19.0041C32.7289 19.0584 32.6748 19.1046 32.6396 19.1678C32.5803 19.2746 32.5162 19.3761 32.4778 19.4915" stroke="#74392A" stroke-linecap="round"/>
<path d="M32.6402 18.3C32.6169 18.2971 32.6681 18.2549 32.6751 18.2458C32.6943 18.2209 32.7046 18.1972 32.7052 18.1652C32.7068 18.0872 32.7052 18.0091 32.7052 17.9311C32.7052 17.8184 32.5861 17.7269 32.5861 17.6176" stroke="#74392A" stroke-linecap="round"/>
<path d="M32.3478 17.3684C32.3344 17.3558 32.3196 17.346 32.3044 17.3359" stroke="#74392A" stroke-linecap="round"/>
<path d="M32.2394 17.3793L32.1961 17.3684" stroke="#74392A" stroke-linecap="round"/>
<path d="M32.3044 17.5742C32.3468 17.614 32.3425 17.7235 32.3646 17.7783C32.3863 17.8321 32.4124 17.8941 32.4447 17.9425C32.4646 17.9725 32.4567 18.0165 32.4669 18.0509C32.488 18.1215 32.4886 18.1894 32.4886 18.2627C32.4886 18.4466 32.4344 18.625 32.4344 18.8091" stroke="#74392A" stroke-linecap="round"/>
<path d="M32.7594 17.3684C32.7608 17.3562 32.7913 17.2386 32.7762 17.2457C32.7264 17.2691 32.6987 17.2926 32.6402 17.2926" stroke="#74392A" stroke-linecap="round"/>
<path d="M32.9977 17.2818C33.0497 17.2584 33.1006 17.2663 33.1493 17.2384" stroke="#74392A" stroke-linecap="round"/>
<path d="M33.5501 18.1159C33.5571 18.1716 33.6668 18.0309 33.6428 18.0557C33.5803 18.1201 33.5131 18.2014 33.4611 18.2747C33.3745 18.3966 33.2979 18.517 33.1927 18.625C33.1159 18.7038 33.053 18.7983 32.9863 18.8855C32.943 18.9421 32.899 19.0491 32.8298 19.0799C32.8053 19.0908 32.7847 19.1315 32.769 19.1521C32.7324 19.2003 32.6946 19.2528 32.6469 19.2905C32.6048 19.3237 32.5887 19.3849 32.5542 19.4223C32.5039 19.4768 32.4863 19.5637 32.4236 19.6107" stroke="#74392A" stroke-linecap="round"/>
<path d="M32.3369 19.914C32.3217 20.0073 32.3058 20.097 32.2804 20.1872C32.2614 20.2543 32.1985 20.3186 32.1672 20.3822C32.137 20.4435 32.0657 20.4846 32.0228 20.5362C31.8738 20.7154 31.7346 20.9012 31.5823 21.0778C31.5267 21.1422 31.4438 21.2042 31.362 21.2247" stroke="#74392A" stroke-linecap="round"/>
<path d="M30.9937 21.0309C30.8616 21.0309 30.801 20.9913 30.7139 20.8979C30.6235 20.8011 30.8195 20.8888 30.8382 20.891C30.9039 20.8988 30.9601 20.989 31.0265 20.9843C31.049 20.9827 30.9982 20.9491 30.9851 20.9308C30.9649 20.9026 30.9385 20.8912 30.9229 20.8599C30.9033 20.8208 30.8452 20.7846 30.8166 20.7433C30.8019 20.7221 30.8117 20.6952 30.7976 20.6734C30.7778 20.6425 30.7571 20.612 30.7372 20.581C30.7139 20.5447 30.6817 20.4962 30.6456 20.4721C30.5823 20.4299 30.5429 20.409 30.5429 20.3279C30.5429 20.2525 30.5584 20.1781 30.5584 20.106C30.5584 20.0364 30.5623 19.9655 30.5584 19.8961C30.5539 19.8144 30.434 19.7857 30.434 19.694" stroke="#74392A" stroke-linecap="round"/>
<path d="M30.8849 20.6423C30.942 20.6443 31.0783 20.6578 31.1198 20.7148C31.1571 20.7661 31.2398 20.8526 31.1612 20.7356C31.0948 20.6367 30.9868 20.5694 30.9306 20.4626C30.9006 20.4055 30.8251 20.354 30.8071 20.3003" stroke="#74392A" stroke-linecap="round"/>
<path d="M30.8693 21.0154C30.8693 21.1284 30.8933 21.2684 30.8417 21.3695C30.7797 21.4908 30.815 21.6717 30.7795 21.8048C30.7672 21.8509 30.7501 21.9171 30.745 21.9637C30.7437 21.9754 30.7424 21.8884 30.7424 21.8877C30.7321 21.7901 30.7037 21.6924 30.6793 21.5975C30.6488 21.4786 30.6368 21.3449 30.5809 21.2365C30.55 21.1767 30.5584 21.1082 30.5584 21.043C30.5584 20.9313 30.5584 20.8196 30.5584 20.7079C30.5584 20.6581 30.5584 20.4934 30.5584 20.6423C30.5584 21.0476 30.5584 21.453 30.5584 21.8583C30.5584 22.1425 30.5638 22.426 30.5584 22.7099C30.5574 22.7615 30.5737 22.8259 30.5342 22.8654C30.526 22.8736 30.5573 22.7081 30.5584 22.6823C30.5665 22.4969 30.5584 22.3098 30.5584 22.1243C30.5584 21.9905 30.5568 22.0601 30.5584 22.1572C30.5603 22.2733 30.5662 22.4323 30.605 22.5441C30.634 22.6274 30.6234 22.6577 30.6862 22.5475C30.7594 22.4192 30.7894 22.263 30.8037 22.1174C30.8195 21.9561 30.8602 21.4736 30.8693 21.6355C30.8776 21.7817 30.9247 21.922 30.9315 22.0691C30.9321 22.0811 30.9781 21.9703 30.9781 21.9326" stroke="#74392A" stroke-linecap="round"/>
<path d="M30.9782 21.5751C30.9782 21.5853 30.9759 21.803 31.0248 21.7357C31.0357 21.7206 31.1025 21.5919 31.1025 21.6528" stroke="#74392A" stroke-linecap="round"/>
<path d="M31.0559 22.1036C31.0487 22.1901 30.9954 22.2611 30.9937 22.3524C30.9924 22.4223 31.0085 22.5119 30.9773 22.5769C30.9072 22.7229 30.8409 22.8679 30.7838 23.02C30.7462 23.1204 30.7192 23.2164 30.6594 23.3076C30.6259 23.3589 30.6151 23.4142 30.5895 23.4691C30.5682 23.5147 30.5293 23.5552 30.5273 23.6081C30.5265 23.6284 30.5582 23.521 30.5619 23.5097C30.59 23.4224 30.649 23.3467 30.6983 23.2704C30.7266 23.2267 30.7619 23.1884 30.7907 23.1452C30.8079 23.1194 30.7969 23.0908 30.8106 23.0675C30.8271 23.0394 30.9209 23.045 30.89 23.0899C30.8493 23.1493 30.7996 23.2045 30.7614 23.2618C30.7254 23.3158 30.6953 23.3765 30.6517 23.425C30.5961 23.4868 30.5203 23.5559 30.4807 23.6271C30.4263 23.725 30.4029 23.7816 30.4029 23.8949C30.4029 23.9628 30.4107 24.0145 30.3658 24.0693C30.3038 24.1451 30.425 24.0187 30.4496 24.0002" stroke="#74392A" stroke-linecap="round"/>
<path d="M30.7294 23.7359C30.7867 23.7269 30.8397 23.6639 30.8918 23.6358C30.9723 23.5923 31.0378 23.5103 31.0524 23.4198C31.077 23.2675 31.0409 23.111 31.0714 22.9586" stroke="#74392A" stroke-linecap="round"/>
<path d="M30.3097 24.4977C30.3071 24.5237 30.2936 24.5398 30.2786 24.5599" stroke="#74392A" stroke-linecap="round"/>
<path d="M30.2786 24.5599C30.2979 24.5165 30.302 24.4813 30.3097 24.4355" stroke="#74392A" stroke-linecap="round"/>
<path d="M30.3097 24.3111C30.3272 24.0222 30.4185 23.7426 30.4185 23.4501C30.4185 23.0993 30.4211 22.7621 30.4807 22.4145" stroke="#74392A" stroke-linecap="round"/>
<path d="M24.1501 20.9788C24.1627 21.0231 24.1965 21.061 24.2169 21.1019C24.251 21.1702 24.278 21.2455 24.2957 21.3197C24.2992 21.3343 24.3123 21.4212 24.3123 21.4112C24.3123 21.3303 24.2927 21.2536 24.2807 21.174C24.2686 21.093 24.2717 21.011 24.2717 20.9293C24.2717 20.8831 24.2717 20.8748 24.2717 20.9293C24.2717 21.144 24.2717 21.3587 24.2717 21.5734" stroke="#74392A" stroke-width="0.5" stroke-linecap="round"/>
<path d="M24.2717 21.2896C24.2681 20.9507 24.2312 20.6142 24.2312 20.2754C24.2312 20.2109 24.2351 20.1449 24.2237 20.081C24.2006 19.9522 24.1592 20.1026 24.1418 20.1538C24.1081 20.2533 24.06 20.3589 24.0555 20.4653C24.053 20.5246 24.0618 20.5855 24.0495 20.644C24.0226 20.7721 24.015 20.8879 24.015 21.0194" stroke="#74392A" stroke-width="0.5" stroke-linecap="round"/>
<path d="M23.9069 20.2221C23.9069 20.173 23.9179 20.1102 23.9039 20.063C23.8828 19.9919 23.9286 19.9948 23.9474 19.9384" stroke="#74392A" stroke-width="0.5" stroke-linecap="round"/>
<path d="M23.9474 19.9249C24.1239 19.9249 24.2997 19.9384 24.4744 19.9384" stroke="#74392A" stroke-width="0.5" stroke-linecap="round"/>
<path d="M24.4879 20.0059C24.4879 20.0695 24.4879 20.133 24.4879 20.1966C24.4879 20.2843 24.5191 20.3647 24.5277 20.4511C24.5388 20.5622 24.5319 20.6826 24.5285 20.7942C24.5261 20.8683 24.4877 20.9394 24.4774 21.0134C24.4695 21.0705 24.4578 21.1274 24.4504 21.1845C24.4363 21.2938 24.4474 21.4098 24.4474 21.5201C24.4474 21.624 24.4263 21.7204 24.4211 21.8226C24.4115 22.0105 24.4339 22.1988 24.4339 22.3841" stroke="#74392A" stroke-width="0.5" stroke-linecap="round"/>
<path d="M24.4339 22.3841C24.4339 22.282 24.4051 22.2122 24.3453 22.1267C24.2784 22.0311 24.2515 21.9411 24.2282 21.8271C24.2111 21.7435 24.1657 21.6934 24.1246 21.6199C24.1047 21.5844 24.1106 21.541 24.0961 21.5028C24.079 21.4582 24.0577 21.4078 24.0555 21.3602C24.0515 21.2715 24.0234 21.1825 24.0157 21.0937C24.0121 21.052 24.0015 21.0132 24.0015 20.9713C24.0015 20.9205 23.9795 20.886 23.9744 20.8407C23.9662 20.7664 23.9474 20.7037 23.9474 20.6268C23.9474 20.5381 23.946 20.4695 23.9204 20.3843" stroke="#74392A" stroke-width="0.5" stroke-linecap="round"/>
<path d="M24.0961 21.695C24.0961 21.7516 24.1064 21.8031 24.1096 21.8572C24.1108 21.8783 24.1409 21.8756 24.1501 21.8917C24.168 21.923 24.1779 21.9515 24.1981 21.9818C24.2138 22.0053 24.227 22.045 24.2304 22.0726C24.2352 22.1106 24.2703 22.1326 24.2717 22.171C24.2738 22.2261 24.3286 22.2746 24.34 22.3376C24.3465 22.373 24.3776 22.382 24.3798 22.4187C24.381 22.4376 24.3912 22.4749 24.4008 22.4915C24.4319 22.5448 24.4609 22.5934 24.4609 22.6544C24.4609 22.6842 24.4868 22.6832 24.4879 22.7115C24.4889 22.7374 24.4879 22.7636 24.4879 22.7895C24.4879 22.8448 24.4974 22.8916 24.5285 22.9382" stroke="#74392A" stroke-width="0.5" stroke-linecap="round"/>
<path d="M29.9605 20.4383C29.9605 20.4159 29.9585 20.3923 29.9613 20.37C29.9657 20.3347 29.9972 20.3152 30.0018 20.2807C30.0089 20.2276 30.051 20.1867 30.0551 20.1335C30.0579 20.0978 30.0611 20.0676 30.0716 20.0329C30.0851 19.9884 30.1207 19.9592 30.1084 20.0269C30.1003 20.0718 30.0542 20.1274 30.0281 20.1651C30.0173 20.1806 30.0019 20.2051 29.9861 20.2154C29.9639 20.2296 29.9464 20.2659 29.9267 20.2747C29.8573 20.3056 29.9228 20.1741 29.9335 20.1576C29.9431 20.1427 30.0436 20.0298 30.0544 20.0675C30.0768 20.146 30.0551 20.2651 30.0551 20.3467C30.0551 20.5762 30.0011 20.7945 30.0011 21.0224C30.0011 21.2125 30.0011 21.4027 30.0011 21.5929C30.0011 21.9487 30.0011 22.3046 30.0011 22.6604C30.0011 22.8999 29.9551 23.1726 30.0341 23.3983C30.0474 23.4362 30.0409 23.4798 30.0416 23.5192C30.0429 23.5915 30.0551 23.6625 30.0551 23.7354C30.0551 23.8795 30.0551 24.0237 30.0551 24.1678" stroke="#74392A" stroke-width="0.5" stroke-linecap="round"/>
<path d="M30.0416 24.1813C29.9777 24.1441 30.0026 24.0275 30.0011 23.9621C29.9997 23.9007 29.9867 23.8298 29.9665 23.7729C29.954 23.7377 29.963 23.6976 29.9598 23.6611C29.9566 23.6247 29.9348 23.5933 29.9335 23.5567C29.9317 23.5063 29.9335 23.4556 29.9335 23.4051C29.9335 23.3135 29.9335 23.2219 29.9335 23.1303C29.9335 23.0391 29.9065 22.9579 29.9065 22.8646C29.9065 22.6384 29.9065 22.4122 29.9065 22.186C29.9065 22.0341 29.9623 21.9105 29.9861 21.7618C30.0091 21.6176 30.0416 21.4617 30.0416 21.3151C30.0416 21.1038 30.07 20.8783 29.9981 20.6786C29.98 20.6283 29.9378 20.5887 29.92 20.5329C29.8939 20.4513 29.92 20.4394 29.92 20.5299C29.92 20.715 29.947 20.8956 29.947 21.0802C29.947 21.2378 29.947 21.3955 29.947 21.5531C29.947 21.6292 29.9163 21.6892 29.9072 21.7618C29.899 21.8275 29.9065 21.8983 29.9065 21.9645C29.9065 22.2357 29.9335 21.4226 29.9335 21.1515C29.9335 21.0039 29.9335 20.8562 29.9335 20.7086C29.9335 20.6275 29.9335 20.5464 29.9335 20.4654C29.9335 20.3948 29.9335 20.3408 29.9335 20.4518C29.9335 20.5167 29.9335 20.5815 29.9335 20.6463C29.9335 20.6705 29.9348 20.5977 29.9335 20.5735C29.932 20.5447 29.9065 20.5269 29.9065 20.4991C29.9065 20.3895 29.893 20.2793 29.893 20.1681" stroke="#74392A" stroke-width="0.5" stroke-linecap="round"/>
<path d="M29.9065 23.8705C29.7909 24.061 29.8586 24.3225 29.89 24.5266C29.9007 24.5966 29.8971 24.6779 29.893 24.7489C29.8923 24.7608 29.8508 24.8028 29.8419 24.7939C29.8223 24.7743 29.8389 24.6732 29.8389 24.6438C29.8389 24.3762 29.8659 24.1135 29.8659 23.8465C29.8659 23.5027 29.8524 23.1501 29.8524 22.803" stroke="#74392A" stroke-width="0.5" stroke-linecap="round"/>
<path d="M30.7746 24.2257C30.7746 24.159 30.7497 24.0344 30.7802 23.975C30.7995 23.9375 30.8755 23.893 30.9167 23.9005C30.9538 23.9072 30.9089 23.9962 30.9 24.0084C30.8376 24.0941 30.7421 24.1103 30.666 24.1783C30.6306 24.2099 30.6165 24.2458 30.5859 24.2821C30.5359 24.3415 30.5698 24.3177 30.6054 24.2821C30.6299 24.2576 30.6352 24.2273 30.6618 24.2006C30.6929 24.1695 30.7416 24.1527 30.7677 24.1191C30.782 24.1008 30.8178 24.0601 30.8401 24.053C30.8782 24.0408 30.8636 24.1186 30.8471 24.1351C30.8075 24.1747 30.7574 24.1928 30.7182 24.2319C30.6958 24.2544 30.6765 24.282 30.6521 24.3009C30.6307 24.3174 30.7198 24.2758 30.737 24.2758" stroke="#74392A" stroke-width="0.5" stroke-linecap="round"/>
<path d="M31.3387 21.5183C31.4133 21.5323 31.3534 22.204 31.3512 22.2982C31.3497 22.363 31.3314 22.4308 31.3254 22.496C31.3224 22.5295 31.3235 22.5894 31.308 22.6185C31.2925 22.6477 31.276 22.6685 31.276 22.7035C31.276 22.8434 31.2586 22.9956 31.2008 23.1227" stroke="#74392A" stroke-width="0.5" stroke-linecap="round"/>
<path d="M30.2274 19.8559C30.1416 19.8559 30.1212 19.9687 30.0698 20.0202C30.0607 20.0292 30.0118 20.0631 30.0399 20.0401C30.1018 19.9894 30.1559 19.9274 30.2125 19.8708" stroke="#74392A" stroke-width="0.5" stroke-linecap="round"/>
<path d="M30.2125 19.8708C30.2125 19.7973 30.1151 19.9368 30.0996 19.9621C30.0666 20.0162 30.0197 20.0618 29.9884 20.1165C29.9773 20.136 29.9788 20.0103 29.9884 19.9837C30.0041 19.9407 30.0804 19.893 30.1146 19.865C30.1622 19.826 30.1799 19.8127 30.1826 19.7397C30.1856 19.6597 30.083 19.7428 30.0631 19.7696C30.0278 19.8173 29.9802 19.8453 29.9552 19.9007C29.9314 19.9537 29.9396 20.0073 29.8839 20.0351" stroke="#74392A" stroke-width="0.5" stroke-linecap="round"/>
<path d="M31.2432 20.6924C31.288 20.6761 31.3082 20.6109 31.3461 20.5812C31.3854 20.5503 31.4268 20.528 31.4722 20.5115C31.503 20.5003 31.5366 20.4228 31.5569 20.397C31.5904 20.3543 31.622 20.3339 31.6764 20.3339" stroke="#74392A" stroke-width="0.5" stroke-linecap="round"/>
<path d="M31.5733 23.4828C31.5142 23.4959 31.5156 23.6564 31.5131 23.7036C31.5078 23.805 31.4558 23.9084 31.4016 23.9935C31.3589 24.0606 31.2844 24.1127 31.2566 24.1898C31.2269 24.2724 31.1281 24.3808 31.0603 24.4363C31.0009 24.4849 30.9501 24.5686 30.8819 24.6058C30.7753 24.6639 30.7012 24.8046 30.6098 24.8835C30.4933 24.9839 30.3629 25.099 30.2194 25.1511C30.133 25.1826 30.0612 25.2894 29.9674 25.2894" stroke="black" stroke-width="0.5" stroke-linecap="round"/>
<path d="M31.6892 23.2642C31.6976 23.2456 31.7125 23.2189 31.7125 23.1981C31.7125 23.187 31.6844 23.248 31.6797 23.2599C31.6384 23.3645 31.5896 23.4676 31.5257 23.5599" stroke="black" stroke-width="0.5" stroke-linecap="round"/>
<path d="M30.4432 18.8731C30.4432 18.9182 30.4713 18.9502 30.4871 18.9908C30.4928 19.0055 30.5158 19.0339 30.5283 19.0434C30.5457 19.0567 30.5664 19.0675 30.5819 19.0829C30.6068 19.1079 30.6052 19.1365 30.617 19.1681C30.632 19.2085 30.6197 19.2451 30.6407 19.284C30.672 19.3419 30.7266 19.4093 30.7745 19.4542C30.8091 19.4866 30.8365 19.5289 30.8571 19.5723C30.8672 19.5937 30.8676 19.6185 30.8777 19.6412C30.8972 19.6854 30.935 19.7232 30.9646 19.761C31.0135 19.8235 31.0668 19.8821 31.1248 19.9379C31.1776 19.9887 31.2334 20.0204 31.2964 20.0582" stroke="black" stroke-width="0.5" stroke-linecap="round"/>
</svg>
