<svg   viewBox="0 0 35 43" fill="none" xmlns="http://www.w3.org/2000/svg">
<g opacity="0.2">
<path d="M16.1999 32.6383C16.1999 33.7852 15.7443 34.8852 14.9332 35.6962C14.1222 36.5073 13.0222 36.9629 11.8753 36.9629C10.7283 36.9629 9.62834 36.5073 8.81731 35.6962C8.00629 34.8852 7.55067 33.7852 7.55067 32.6383C7.55067 31.4913 8.00629 30.3913 8.81731 29.5803C9.62834 28.7693 10.7283 28.3137 11.8753 28.3137C13.0222 28.3137 14.1222 28.7693 14.9332 29.5803C15.7443 30.3913 16.1999 31.4913 16.1999 32.6383Z" fill="#C67560"/>
<path fill-rule="evenodd" clip-rule="evenodd" d="M11.8126 7.88451C10.3638 7.88451 9.1205 8.31697 8.24476 8.93539C7.40146 9.53219 6.98414 10.2263 6.86305 10.8252C6.68413 11.6259 6.19854 12.3245 5.51045 12.7712C4.82237 13.2179 3.98661 13.3771 3.18247 13.2147C2.37834 13.0523 1.66989 12.5812 1.20911 11.9024C0.74834 11.2237 0.571947 10.3914 0.71778 9.58408C1.20862 7.14933 2.71791 5.16217 4.62939 3.81073C6.61871 2.40523 9.13996 1.61383 11.8126 1.61383C17.3416 1.61383 23.0738 5.31137 23.0738 11.2491C23.0738 14.6871 21.0305 17.4678 18.3838 19.0896C18.0326 19.3045 17.6424 19.4482 17.2356 19.5124C16.8288 19.5765 16.4134 19.56 16.013 19.4636C15.6127 19.3672 15.2352 19.1929 14.9022 18.9507C14.5692 18.7084 14.2871 18.4029 14.0722 18.0517C13.8572 17.7004 13.7135 17.3103 13.6494 16.9035C13.5852 16.4967 13.6018 16.0813 13.6982 15.6809C13.7945 15.2805 13.9688 14.9031 14.2111 14.57C14.4533 14.237 14.7588 13.955 15.1101 13.74C16.3426 12.9854 16.8032 12.0232 16.8032 11.2491C16.8032 10.0079 15.2571 7.88451 11.8126 7.88451Z" fill="#C67560"/>
<path fill-rule="evenodd" clip-rule="evenodd" d="M11.8126 16.2415C13.5424 16.2415 14.9479 17.6427 14.9479 19.3769V22.6246C14.9479 23.4562 14.6176 24.2537 14.0296 24.8417C13.4416 25.4296 12.6441 25.76 11.8126 25.76C10.981 25.76 10.1835 25.4296 9.59555 24.8417C9.00756 24.2537 8.67723 23.4562 8.67723 22.6246V19.3769C8.67723 17.647 10.0806 16.2415 11.8126 16.2415Z" fill="#C67560"/>
<path fill-rule="evenodd" clip-rule="evenodd" d="M19.4433 14.8058C19.6551 15.1593 19.7952 15.551 19.8555 15.9587C19.9158 16.3663 19.8951 16.7818 19.7947 17.1814C19.6943 17.5811 19.5161 17.957 19.2703 18.2877C19.0245 18.6184 18.7159 18.8975 18.3622 19.1088L13.4235 22.0647C12.7101 22.4919 11.8562 22.6183 11.0496 22.4159C10.2431 22.2136 9.54991 21.6991 9.12267 20.9857C8.69542 20.2723 8.56908 19.4184 8.77143 18.6118C8.97378 17.8053 9.48825 17.1121 10.2017 16.6849L15.1425 13.7268C15.4959 13.5154 15.8875 13.3756 16.2949 13.3155C16.7023 13.2554 17.1175 13.2761 17.5169 13.3765C17.9163 13.4769 18.292 13.655 18.6225 13.9006C18.9531 14.1462 19.232 14.4546 19.4433 14.808" fill="#C67560"/>
</g>
<path d="M12.4397 30.5564C12.4397 31.2732 12.1549 31.9607 11.648 32.4676C11.1411 32.9745 10.4536 33.2593 9.73677 33.2593C9.01992 33.2593 8.33243 32.9745 7.82555 32.4676C7.31866 31.9607 7.03389 31.2732 7.03389 30.5564C7.03389 29.8395 7.31866 29.1521 7.82555 28.6452C8.33243 28.1383 9.01992 27.8535 9.73677 27.8535C10.4536 27.8535 11.1411 28.1383 11.648 28.6452C12.1549 29.1521 12.4397 29.8395 12.4397 30.5564Z" fill="#C67560"/>
<path fill-rule="evenodd" clip-rule="evenodd" d="M9.65027 4.20851C7.90529 4.20851 6.35492 4.72746 5.21106 5.53616C4.10828 6.31459 3.42716 7.32223 3.21741 8.36446C3.17892 8.57668 3.09847 8.77909 2.98079 8.95984C2.86311 9.14059 2.71055 9.29605 2.53205 9.41712C2.35355 9.53819 2.1527 9.62244 1.94124 9.66493C1.72978 9.70743 1.51198 9.70731 1.30056 9.6646C1.08915 9.62188 0.888382 9.53743 0.710009 9.41617C0.531636 9.29492 0.379243 9.1393 0.261749 8.95843C0.144256 8.77755 0.0640211 8.57506 0.0257434 8.3628C-0.0125343 8.15054 -0.00808698 7.93278 0.0388256 7.72225C0.441014 5.72861 1.6865 4.05499 3.3385 2.88734C5.0597 1.67213 7.2739 0.962891 9.65027 0.962891C14.6776 0.962891 19.3979 4.28203 19.3979 9.08667C19.3979 11.8804 17.7373 14.2243 15.4323 15.6363C15.0652 15.8611 14.6239 15.9309 14.2055 15.8303C13.787 15.7298 13.4256 15.4671 13.2008 15.1C12.976 14.733 12.9062 14.2917 13.0067 13.8732C13.1073 13.4547 13.37 13.0933 13.737 12.8685C15.3133 11.9041 16.1545 10.5051 16.1545 9.08667C16.1545 6.7103 13.5986 4.20851 9.65027 4.20851ZM9.65027 15.593C10.0804 15.593 10.4929 15.7639 10.797 16.068C11.1011 16.3722 11.272 16.7847 11.272 17.2148V20.4626C11.272 20.8927 11.1011 21.3052 10.797 21.6093C10.4929 21.9134 10.0804 22.0843 9.65027 22.0843C9.22016 22.0843 8.80767 21.9134 8.50353 21.6093C8.1994 21.3052 8.02854 20.8927 8.02854 20.4626V17.2148C8.02854 16.7847 8.1994 16.3722 8.50353 16.068C8.80767 15.7639 9.22016 15.593 9.65027 15.593Z" fill="#C67560"/>
<path fill-rule="evenodd" clip-rule="evenodd" d="M15.9815 13.4219C16.091 13.6046 16.1634 13.8071 16.1947 14.0178C16.2259 14.2285 16.2153 14.4433 16.1635 14.65C16.1117 14.8566 16.0197 15.051 15.8927 15.222C15.7658 15.3931 15.6064 15.5375 15.4236 15.6469L10.4828 18.6049C10.2999 18.7189 10.0962 18.7952 9.88353 18.8295C9.67086 18.8638 9.45347 18.8554 9.24408 18.8048C9.03468 18.7542 8.83747 18.6623 8.66396 18.5347C8.49046 18.407 8.34413 18.246 8.23352 18.0611C8.12292 17.8763 8.05026 17.6712 8.01978 17.4579C7.9893 17.2447 8.00162 17.0275 8.05601 16.819C8.1104 16.6106 8.20578 16.4151 8.33657 16.2439C8.46737 16.0727 8.63096 15.9293 8.81779 15.822L13.7587 12.864C14.1275 12.6435 14.5687 12.5785 14.9855 12.6831C15.4023 12.7877 15.7605 13.0534 15.9815 13.4219Z" fill="#C67560"/>
<g opacity="0.2">
<path d="M31.4251 40.4362C31.4251 41.0327 31.1881 41.6048 30.7663 42.0266C30.3445 42.4484 29.7725 42.6853 29.176 42.6853C28.5795 42.6853 28.0074 42.4484 27.5856 42.0266C27.1638 41.6048 26.9269 41.0327 26.9269 40.4362C26.9269 39.8397 27.1638 39.2677 27.5856 38.8459C28.0074 38.4241 28.5795 38.1871 29.176 38.1871C29.7725 38.1871 30.3445 38.4241 30.7663 38.8459C31.1881 39.2677 31.4251 39.8397 31.4251 40.4362Z" fill="#B05D48"/>
<path fill-rule="evenodd" clip-rule="evenodd" d="M29.1434 27.5626C28.3899 27.5626 27.7433 27.7876 27.2878 28.1092C26.8493 28.4195 26.6322 28.7805 26.5693 29.092C26.4762 29.5084 26.2237 29.8717 25.8658 30.1041C25.508 30.3364 25.0733 30.4192 24.6551 30.3347C24.2369 30.2503 23.8685 30.0052 23.6288 29.6522C23.3892 29.2992 23.2975 28.8664 23.3733 28.4465C23.6286 27.1803 24.4135 26.1468 25.4076 25.444C26.4422 24.713 27.7534 24.3015 29.1434 24.3015C32.0188 24.3015 35 26.2244 35 29.3124C35 31.1005 33.9373 32.5466 32.5609 33.39C32.3782 33.5018 32.1753 33.5766 31.9637 33.6099C31.7522 33.6433 31.5361 33.6347 31.3279 33.5846C31.1197 33.5344 30.9234 33.4438 30.7502 33.3178C30.577 33.1918 30.4303 33.0329 30.3185 32.8503C30.2067 32.6676 30.132 32.4647 30.0986 32.2531C30.0652 32.0416 30.0739 31.8255 30.124 31.6173C30.1741 31.4091 30.2648 31.2128 30.3908 31.0396C30.5167 30.8664 30.6756 30.7197 30.8583 30.6079C31.4993 30.2155 31.7388 29.715 31.7388 29.3124C31.7388 28.6669 30.9348 27.5626 29.1434 27.5626Z" fill="#B05D48"/>
<path fill-rule="evenodd" clip-rule="evenodd" d="M29.1434 31.9088C30.043 31.9088 30.7739 32.6375 30.7739 33.5394V35.2285C30.7739 35.6609 30.6022 36.0757 30.2964 36.3815C29.9906 36.6873 29.5758 36.8591 29.1434 36.8591C28.7109 36.8591 28.2961 36.6873 27.9903 36.3815C27.6846 36.0757 27.5128 35.6609 27.5128 35.2285V33.5394C27.5128 32.6398 28.2426 31.9088 29.1434 31.9088Z" fill="#B05D48"/>
<path fill-rule="evenodd" clip-rule="evenodd" d="M33.1119 31.1622C33.222 31.346 33.2949 31.5497 33.3262 31.7617C33.3576 31.9737 33.3468 32.1898 33.2946 32.3976C33.2424 32.6055 33.1497 32.801 33.0219 32.973C32.894 33.145 32.7336 33.2901 32.5496 33.4L29.9811 34.9373C29.6101 35.1595 29.166 35.2252 28.7466 35.1199C28.3271 35.0147 27.9666 34.7472 27.7444 34.3761C27.5222 34.0051 27.4565 33.561 27.5617 33.1415C27.667 32.7221 27.9345 32.3616 28.3056 32.1394L30.8752 30.601C31.0589 30.491 31.2626 30.4184 31.4744 30.3871C31.6863 30.3558 31.9023 30.3666 32.11 30.4188C32.3177 30.471 32.5131 30.5637 32.685 30.6914C32.8569 30.8191 33.002 30.9795 33.1119 31.1633" fill="#B05D48"/>
</g>
<path d="M29.4695 39.3536C29.4695 39.7264 29.3214 40.0839 29.0578 40.3475C28.7941 40.6111 28.4366 40.7592 28.0638 40.7592C27.691 40.7592 27.3334 40.6111 27.0698 40.3475C26.8062 40.0839 26.6581 39.7264 26.6581 39.3536C26.6581 38.9808 26.8062 38.6232 27.0698 38.3596C27.3334 38.096 27.691 37.9479 28.0638 37.9479C28.4366 37.9479 28.7941 38.096 29.0578 38.3596C29.3214 38.6232 29.4695 38.9808 29.4695 39.3536Z" fill="#B05D48"/>
<path fill-rule="evenodd" clip-rule="evenodd" d="M28.0188 25.6508C27.1113 25.6508 26.305 25.9207 25.7101 26.3413C25.1366 26.7461 24.7824 27.2702 24.6733 27.8122C24.6533 27.9226 24.6114 28.0279 24.5502 28.1219C24.489 28.2159 24.4097 28.2967 24.3168 28.3597C24.224 28.4226 24.1196 28.4665 24.0096 28.4886C23.8996 28.5107 23.7863 28.5106 23.6764 28.4884C23.5664 28.4662 23.462 28.4222 23.3693 28.3592C23.2765 28.2961 23.1972 28.2152 23.1361 28.1211C23.075 28.0271 23.0333 27.9217 23.0134 27.8114C22.9935 27.701 22.9958 27.5877 23.0202 27.4782C23.2294 26.4414 23.8771 25.571 24.7363 24.9637C25.6314 24.3317 26.7829 23.9629 28.0188 23.9629C30.6334 23.9629 33.0883 25.6891 33.0883 28.1878C33.0883 29.6407 32.2246 30.8597 31.0259 31.5941C30.835 31.711 30.6055 31.7473 30.3878 31.695C30.1702 31.6427 29.9822 31.5061 29.8653 31.3152C29.7484 31.1243 29.7121 30.8948 29.7644 30.6772C29.8167 30.4595 29.9533 30.2716 30.1442 30.1547C30.964 29.6531 31.4015 28.9255 31.4015 28.1878C31.4015 26.9519 30.0722 25.6508 28.0188 25.6508ZM28.0188 31.5716C28.2425 31.5716 28.457 31.6604 28.6152 31.8186C28.7734 31.9768 28.8622 32.1913 28.8622 32.415V34.1041C28.8622 34.3278 28.7734 34.5423 28.6152 34.7004C28.457 34.8586 28.2425 34.9475 28.0188 34.9475C27.7951 34.9475 27.5806 34.8586 27.4224 34.7004C27.2643 34.5423 27.1754 34.3278 27.1754 34.1041V32.415C27.1754 32.1913 27.2643 31.9768 27.4224 31.8186C27.5806 31.6604 27.7951 31.5716 28.0188 31.5716Z" fill="#B05D48"/>
<path fill-rule="evenodd" clip-rule="evenodd" d="M31.3115 30.4425C31.3684 30.5375 31.4061 30.6428 31.4223 30.7524C31.4386 30.862 31.4331 30.9737 31.4061 31.0811C31.3792 31.1886 31.3313 31.2897 31.2653 31.3786C31.1993 31.4676 31.1164 31.5427 31.0214 31.5996L28.4518 33.138C28.3567 33.1972 28.2507 33.2369 28.1401 33.2548C28.0295 33.2726 27.9165 33.2683 27.8076 33.2419C27.6987 33.2156 27.5961 33.1678 27.5059 33.1014C27.4156 33.035 27.3395 32.9513 27.282 32.8552C27.2245 32.759 27.1867 32.6524 27.1708 32.5415C27.155 32.4306 27.1614 32.3176 27.1897 32.2092C27.218 32.1008 27.2676 31.9991 27.3356 31.9101C27.4036 31.8211 27.4887 31.7465 27.5859 31.6907L30.1555 30.1523C30.3473 30.0377 30.5767 30.0038 30.7935 30.0582C31.0102 30.1126 31.1965 30.2508 31.3115 30.4425Z" fill="#B05D48"/>
</svg>
