<svg width="19" height="34" viewBox="0 0 19 34" fill="none" xmlns="http://www.w3.org/2000/svg">
<path fill-rule="evenodd" clip-rule="evenodd" d="M15.384 16.6072C10.5543 11.7628 5.83374 7.03388 1.2224 2.42464C0.98103 2.1709 0.84642 1.83409 0.84642 1.48389C0.84642 1.13369 0.98103 0.796881 1.2224 0.543144C1.87546 -0.183416 2.9086 -0.120419 3.37898 0.375153C8.15831 5.16708 13.1581 10.1753 18.3784 15.4019C18.7921 15.7421 19 16.1453 19 16.6072C19 17.0713 18.7921 17.485 18.3784 17.8504L2.66502 33.1921C2.3636 33.4694 1.96591 33.6182 1.55652 33.6068C1.14712 33.5954 0.758302 33.4248 0.472742 33.1312C-0.279016 32.3774 0.010769 31.634 0.35095 31.2812C5.36985 26.3973 10.3795 21.5059 15.384 16.6072Z" fill="white"/>
</svg>
