<svg width="44" height="41" viewBox="0 0 44 41" fill="none" xmlns="http://www.w3.org/2000/svg">
<path d="M22 12.7143C23.6671 12.7143 25.2659 12.052 26.4447 10.8732C27.6235 9.69441 28.2857 8.09561 28.2857 6.42854C28.2857 4.76146 27.6235 3.16267 26.4447 1.98387C25.2659 0.805065 23.6671 0.142822 22 0.142822C20.3329 0.142822 18.7341 0.805065 17.5553 1.98387C16.3765 3.16267 15.7143 4.76146 15.7143 6.42854C15.7143 8.09561 16.3765 9.69441 17.5553 10.8732C18.7341 12.052 20.3329 12.7143 22 12.7143ZM12.5714 7.21425C12.5714 7.93652 12.4292 8.65172 12.1528 9.31901C11.8764 9.9863 11.4712 10.5926 10.9605 11.1033C10.4498 11.6141 9.84348 12.0192 9.17619 12.2956C8.5089 12.572 7.7937 12.7143 7.07143 12.7143C6.34916 12.7143 5.63396 12.572 4.96667 12.2956C4.29938 12.0192 3.69306 11.6141 3.18234 11.1033C2.67162 10.5926 2.26649 9.9863 1.99009 9.31901C1.71369 8.65172 1.57143 7.93652 1.57143 7.21425C1.57143 5.75556 2.15089 4.35661 3.18234 3.32516C4.21379 2.29371 5.61274 1.71425 7.07143 1.71425C8.53012 1.71425 9.92907 2.29371 10.9605 3.32516C11.992 4.35661 12.5714 5.75556 12.5714 7.21425ZM42.4286 7.21425C42.4286 7.93652 42.2863 8.65172 42.0099 9.31901C41.7335 9.9863 41.3284 10.5926 40.8177 11.1033C40.3069 11.6141 39.7006 12.0192 39.0333 12.2956C38.366 12.572 37.6508 12.7143 36.9286 12.7143C36.2063 12.7143 35.4911 12.572 34.8238 12.2956C34.1565 12.0192 33.5502 11.6141 33.0395 11.1033C32.5288 10.5926 32.1236 9.9863 31.8472 9.31901C31.5708 8.65172 31.4286 7.93652 31.4286 7.21425C31.4286 5.75556 32.008 4.35661 33.0395 3.32516C34.0709 2.29371 35.4699 1.71425 36.9286 1.71425C38.3873 1.71425 39.7862 2.29371 40.8177 3.32516C41.8491 4.35661 42.4286 5.75556 42.4286 7.21425ZM11.5924 15.8571C10.6979 16.9708 10.2115 18.3572 10.2143 19.7857V31.5714C10.2143 33.5121 10.6826 35.3428 11.5139 36.9567C10.3162 37.5864 8.97626 37.8962 7.62375 37.856C6.27124 37.8158 4.95203 37.427 3.79391 36.7273C2.63578 36.0275 1.678 35.0405 1.01332 33.8619C0.348637 32.6833 -0.000404976 31.3531 3.52617e-07 30V19.7857C3.52617e-07 18.7438 0.413902 17.7445 1.15065 17.0078C1.8874 16.271 2.88665 15.8571 3.92857 15.8571H11.5924ZM32.4861 36.9567C33.3411 35.2903 33.7866 33.4442 33.7857 31.5714V19.7857C33.7857 18.2991 33.2703 16.9335 32.4076 15.8571H40.0714C41.1133 15.8571 42.1126 16.271 42.8493 17.0078C43.5861 17.7445 44 18.7438 44 19.7857V30C44.0004 31.3531 43.6514 32.6833 42.9867 33.8619C42.322 35.0405 41.3642 36.0275 40.2061 36.7273C39.048 37.427 37.7288 37.8158 36.3763 37.856C35.0237 37.8962 33.6838 37.5864 32.4861 36.9567ZM16.5 15.8571C15.4581 15.8571 14.4588 16.271 13.7221 17.0078C12.9853 17.7445 12.5714 18.7438 12.5714 19.7857V31.5714C12.5714 34.072 13.5648 36.4702 15.333 38.2384C17.1012 40.0066 19.4994 41 22 41C24.5006 41 26.8988 40.0066 28.667 38.2384C30.4352 36.4702 31.4286 34.072 31.4286 31.5714V19.7857C31.4286 18.7438 31.0147 17.7445 30.2779 17.0078C29.5412 16.271 28.5419 15.8571 27.5 15.8571H16.5Z" fill="#A67C52"/>
</svg>
