<svg width="15" height="8" viewBox="0 0 15 8" fill="none" xmlns="http://www.w3.org/2000/svg">
<path fill-rule="evenodd" clip-rule="evenodd" d="M7.15796 1.52252C9.19772 3.55609 11.1888 5.54369 13.1296 7.4853C13.2364 7.58693 13.3782 7.64361 13.5257 7.64361C13.6731 7.64361 13.815 7.58693 13.9218 7.4853C14.2277 7.21033 14.2012 6.77532 13.9925 6.57727C11.9749 4.56492 9.86614 2.45974 7.66547 0.261711C7.52223 0.0875316 7.35247 -2.9715e-07 7.15796 -3.05653e-07C6.96256 -3.14194e-07 6.78838 0.0875316 6.63454 0.261711L0.174856 6.87789C0.0581069 7.0048 -0.0045315 7.17225 0.000256774 7.34462C0.00504505 7.517 0.0768817 7.68071 0.200496 7.80095C0.51791 8.11748 0.830903 7.99546 0.979442 7.85223C3.03585 5.73901 5.09536 3.6297 7.15796 1.52252Z" fill="white"/>
</svg>
