<svg width="152" height="131" viewBox="0 0 152 131" fill="none" xmlns="http://www.w3.org/2000/svg">
<path d="M76 0L151.344 130.5H0.655762L76 0Z" fill="#4E3D94"/>
<path d="M60.25 59H64.3125C66.5596 59 68.375 60.8154 68.375 63.0625V67.125H56.1875V63.0625C56.1875 60.8154 58.0029 59 60.25 59ZM68.375 71.1875V111.812C68.375 114.06 66.5596 115.875 64.3125 115.875H48.0625C45.8154 115.875 44 114.06 44 111.812V104.31C44 99.917 45.1934 95.6006 47.4531 91.8301C49.1924 88.9355 50.3096 85.7109 50.7285 82.3594L51.6807 74.7422C51.9346 72.7109 53.6611 71.1875 55.7178 71.1875H68.375ZM97.2949 71.1875C99.3389 71.1875 101.078 72.7109 101.332 74.7422L102.271 82.3594C102.69 85.7109 103.808 88.9355 105.547 91.8301C107.807 95.6006 109 99.917 109 104.31V111.812C109 114.06 107.185 115.875 104.938 115.875H88.6875C86.4404 115.875 84.625 114.06 84.625 111.812V71.1875H97.2949ZM84.625 63.0625C84.625 60.8154 86.4404 59 88.6875 59H92.75C94.9971 59 96.8125 60.8154 96.8125 63.0625V67.125H84.625V63.0625ZM80.5625 71.1875V91.5H72.4375V71.1875H80.5625Z" fill="white"/>
</svg>
