<svg width="26" height="26" viewBox="0 0 26 26" fill="none" xmlns="http://www.w3.org/2000/svg">
<path fill-rule="evenodd" clip-rule="evenodd" d="M0 5.54989C0 3.60622 2.98023e-08 2.63438 0.378323 1.89393C0.712263 1.24242 1.24242 0.712263 1.89393 0.378323C2.63669 2.98023e-08 3.60622 0 5.54989 0H19.8961C21.8398 0 22.8116 2.98023e-08 23.552 0.378323C24.2036 0.712263 24.7337 1.24242 25.0677 1.89393C25.446 2.63669 25.446 3.60622 25.446 5.54989V19.8961C25.446 21.8398 25.446 22.8116 25.0677 23.552C24.735 24.2045 24.2045 24.735 23.552 25.0677C22.8093 25.446 21.8398 25.446 19.8961 25.446H5.54989C3.60622 25.446 2.63438 25.446 1.89393 25.0677C1.24148 24.735 0.710975 24.2045 0.378323 23.552C2.98023e-08 22.8093 0 21.8398 0 19.8961V5.54989ZM5.55336 1.15348H19.8996C20.8911 1.15348 21.5656 1.15348 22.0862 1.19744C22.5929 1.23794 22.8532 1.31314 23.0337 1.40569C23.4687 1.62783 23.8228 1.98186 24.0449 2.41687C24.1375 2.59735 24.2127 2.85651 24.2532 3.36441C24.296 3.88504 24.2971 4.55607 24.2971 5.55105V19.8972C24.2971 20.8887 24.296 21.5632 24.2532 22.0839C24.2115 22.5906 24.1363 22.8509 24.0449 23.0314C23.8231 23.4668 23.4691 23.8208 23.0337 24.0426C22.8532 24.1351 22.5929 24.2104 22.0862 24.2508C21.5656 24.2925 20.8945 24.2936 19.8996 24.2936H16.6832V14.7025H19.3789L19.8024 11.7407H16.6902V10.4681C16.6902 10.2521 16.7044 10.0566 16.733 9.88152C16.8568 9.1376 17.264 8.77084 18.1213 8.77084H19.8336V5.93631L19.8151 5.93284C19.5073 5.89119 18.8745 5.80558 17.6979 5.80558C15.1873 5.80558 13.718 7.1245 13.718 10.1441V11.7407H10.7562V14.7025H13.718V24.2936H5.56146C4.56996 24.2936 3.89545 24.2936 3.37483 24.2497C2.86808 24.2092 2.60777 24.134 2.42728 24.0414C1.99191 23.8196 1.63795 23.4656 1.41611 23.0303C1.32355 22.8498 1.24835 22.5906 1.20786 22.0827C1.16505 21.5621 1.16505 20.8911 1.16505 19.8961V5.54989C1.16505 4.55839 1.16505 3.88388 1.20786 3.36326C1.24951 2.85651 1.32471 2.5962 1.41611 2.41571C1.63824 1.9807 1.99227 1.62667 2.42728 1.40454C2.60777 1.31198 2.86808 1.23678 3.37598 1.19629C3.89661 1.15464 4.56764 1.15348 5.56262 1.15348H5.55336Z" fill="white"/>
</svg>
