<svg width="94" height="187" viewBox="0 0 94 187" fill="none" xmlns="http://www.w3.org/2000/svg">
<path d="M46.8114 73.1963C44.732 75.7903 43.4324 78.9587 42.6526 82.4141C42.3927 83.278 41.353 88.7486 41.353 92.7782L41.353 93.9296C41.353 97.9592 42.3927 103.714 42.6526 104.577C43.4324 107.742 44.732 110.906 46.8114 113.493C51.4899 119.241 58.7677 119.228 64.7459 116.34C71.2439 113.45 76.9622 110.274 82.6804 105.947C87.0991 102.485 93.3372 98.7325 93.3372 93.2637C93.3372 87.7949 87.0991 84.0639 82.6804 80.3298C77.2221 76.0218 71.2439 72.866 64.7459 69.999C58.7677 67.4189 51.4899 67.4315 46.8114 73.1963Z" fill="#556577"/>
<path d="M5.30492 30.3722C5.972 32.7654 7.32766 34.9359 9.08417 36.9162C9.49502 37.4507 12.361 40.4677 14.8061 42.2253L15.5047 42.7275C17.9498 44.4851 21.8951 46.3643 22.5322 46.583C24.7926 47.4903 27.2792 48.0817 29.7559 47.9483C35.2846 47.6168 38.4513 43.1952 39.306 38.3079C40.3869 33.1047 40.9539 28.2496 40.8222 22.8924C40.6491 18.7014 41.0929 13.2795 37.7746 10.8942C34.4562 8.50888 29.4715 10.6667 25.2784 11.7191C20.2837 13.1521 15.7613 15.4031 11.1874 18.0954C7.01435 20.5975 3.84766 25.019 5.30492 30.3722Z" fill="#556577"/>
<path d="M5.30492 155.972C5.972 153.579 7.32766 151.409 9.08417 149.428C9.49502 148.894 12.361 145.877 14.8061 144.119L15.5047 143.617C17.9498 141.859 21.8951 139.98 22.5322 139.761C24.7926 138.854 27.2792 138.263 29.7559 138.396C35.2846 138.728 38.4513 143.149 39.306 148.037C40.3869 153.24 40.9539 158.095 40.8222 163.452C40.6491 167.643 41.0929 173.065 37.7746 175.45C34.4562 177.836 29.4715 175.678 25.2784 174.625C20.2837 173.192 15.7613 170.941 11.1874 168.249C7.01435 165.747 3.84766 161.326 5.30492 155.972Z" fill="#556577"/>
</svg>
