<svg width="30" height="32" viewBox="0 0 224 192" xmlns="http://www.w3.org/2000/svg">
<path d="M162.927 1H162.926C141.358 1 122.63 10.9839 112 27.667C101.37 10.9839 82.6421 1 61.0741 0.999999L61.0729 1C45.1464 1.01919 29.8778 7.35444 18.6161 18.6161C7.35444 29.8778 1.01919 45.1464 1 61.0729V61.0741C1 90.6278 19.5985 121.314 55.7384 152.268L55.7409 152.27C72.4383 166.477 90.4662 179.042 109.575 189.79L109.582 189.794L109.59 189.799C110.33 190.198 111.159 190.407 112 190.407C112.841 190.407 113.67 190.198 114.41 189.799L114.418 189.794L114.425 189.79C133.534 179.042 151.562 166.477 168.259 152.27L168.262 152.268C204.401 121.314 223 90.6278 223 61.0741V61.0729C222.981 45.1464 216.646 29.8778 205.384 18.6161C194.122 7.35444 178.854 1.01919 162.927 1ZM107.306 40.5835L107.306 40.5846C107.689 41.5152 108.339 42.3112 109.175 42.8714C110.011 43.4316 110.994 43.7307 112 43.7307C113.006 43.7307 113.989 43.4316 114.825 42.8714C115.661 42.3112 116.311 41.5152 116.694 40.5846L116.694 40.5835C124.114 22.4568 141.792 11.1483 162.926 11.1481C176.162 11.1642 188.852 16.4294 198.211 25.789C207.571 35.1487 212.836 47.8386 212.852 61.0753C212.851 90.1521 191.257 117.765 167.601 139.243C144.519 160.201 119.725 175.094 112.001 179.517C104.275 175.074 79.4815 160.199 56.3988 139.255C32.7434 117.791 11.1483 90.1872 11.1481 61.0745C11.1642 47.8381 16.4294 35.1485 25.789 25.789C35.1485 16.4294 47.8381 11.1642 61.0745 11.1481C82.2079 11.1483 99.886 22.4568 107.306 40.5835Z" stroke-width="1.66667"/>
</svg>
