<svg width="27" height="26" viewBox="0 0 27 26" fill="currentColor" xmlns="http://www.w3.org/2000/svg">
<path fill="currentColor" d="M13.2901 6.98521C12.1553 6.98521 11.0459 7.32173 10.1024 7.95222C9.15878 8.5827 8.42334 9.47883 7.98906 10.5273C7.55477 11.5757 7.44115 12.7294 7.66254 13.8425C7.88394 14.9555 8.43042 15.9779 9.23287 16.7803C10.0353 17.5828 11.0577 18.1293 12.1707 18.3507C13.2838 18.5721 14.4375 18.4584 15.4859 18.0242C16.5344 17.5899 17.4305 16.8544 18.061 15.9108C18.6915 14.9673 19.028 13.8579 19.028 12.7231C19.026 11.2019 18.4209 9.74361 17.3452 8.66798C16.2696 7.59235 14.8113 6.98719 13.2901 6.98521ZM13.2901 16.9641C12.4513 16.9641 11.6314 16.7154 10.934 16.2493C10.2365 15.7833 9.69294 15.121 9.37195 14.346C9.05096 13.5711 8.96697 12.7184 9.13061 11.8957C9.29425 11.073 9.69817 10.3173 10.2913 9.72421C10.8844 9.13109 11.6401 8.72718 12.4628 8.56353C13.2854 8.39989 14.1382 8.48388 14.9131 8.80487C15.6881 9.12587 16.3504 9.66945 16.8164 10.3669C17.2824 11.0643 17.5312 11.8843 17.5312 12.7231C17.5312 13.8479 17.0843 14.9266 16.289 15.7219C15.4937 16.5173 14.4149 16.9641 13.2901 16.9641ZM19.2775 0H7.30282C5.517 0.00198095 3.80489 0.712274 2.54212 1.97504C1.27935 3.23781 0.569059 4.94992 0.567078 6.73574V18.7104C0.569059 20.4962 1.27935 22.2083 2.54212 23.4711C3.80489 24.7339 5.517 25.4442 7.30282 25.4461H19.2775C21.0633 25.4442 22.7754 24.7339 24.0382 23.4711C25.3009 22.2083 26.0112 20.4962 26.0132 18.7104V6.73574C26.0112 4.94992 25.3009 3.23781 24.0382 1.97504C22.7754 0.712274 21.0633 0.00198095 19.2775 0ZM24.5164 18.7104C24.5164 20.0998 23.9644 21.4324 22.9819 22.4149C21.9995 23.3973 20.6669 23.9493 19.2775 23.9493H7.30282C5.91337 23.9493 4.58084 23.3973 3.59835 22.4149C2.61586 21.4324 2.06391 20.0998 2.06391 18.7104V6.73574C2.06391 5.3463 2.61586 4.01376 3.59835 3.03127C4.58084 2.04879 5.91337 1.49683 7.30282 1.49683H19.2775C20.6669 1.49683 21.9995 2.04879 22.9819 3.03127C23.9644 4.01376 24.5164 5.3463 24.5164 6.73574V18.7104ZM21.0238 6.2368C21.0238 6.4835 20.9506 6.72467 20.8136 6.92979C20.6765 7.13492 20.4817 7.2948 20.2538 7.38921C20.0258 7.48362 19.775 7.50832 19.5331 7.46019C19.2911 7.41206 19.0688 7.29326 18.8944 7.11881C18.7199 6.94437 18.6012 6.72211 18.553 6.48015C18.5049 6.23818 18.5296 5.98738 18.624 5.75945C18.7184 5.53153 18.8783 5.33672 19.0834 5.19966C19.2885 5.06259 19.5297 4.98944 19.7764 4.98944C20.1072 4.98944 20.4245 5.12086 20.6584 5.35478C20.8924 5.58871 21.0238 5.90598 21.0238 6.2368Z"/>
</svg>
