<svg width="63" height="27" viewBox="0 0 63 27" fill="none" xmlns="http://www.w3.org/2000/svg">
<path d="M27.6442 1.24313H29.5233L37.4087 22.7854L37.0396 22.6847L42.0057 9.26275L42.7774 11.3767L37.0396 26.1073L27.6442 1.24313ZM38.6166 1.24313H40.2608L48.4482 22.7854L47.9449 22.6512L55.931 1.24313H57.6758L48.1127 26.0738L38.6166 1.24313Z" fill="#6148C7"/>
<path d="M30.6442 1.24313H32.5233L40.4087 22.7854L40.0396 22.6847L45.0057 9.26275L45.7774 11.3767L40.0396 26.1073L30.6442 1.24313ZM41.6166 1.24313H43.2608L51.4482 22.7854L50.9449 22.6512L58.931 1.24313H60.6758L51.1127 26.0738L41.6166 1.24313Z" fill="#6148C7"/>
<path d="M27.039 0.352295C29.0863 0.423827 31.1478 1.23967 31.3309 3.19818L31.503 7.09793C32.5223 7.16391 32.4791 9.22541 31.4783 9.3549L31.6263 11.3418L35.8202 9.25747L35.7955 8.27698L37.8317 7.0745L39.6959 9.77238L37.4636 11.2684L36.5805 10.8028L32.7289 13.1085C35.1949 16.547 35.3176 19.8585 31.7718 22.9701L33.784 23.9506C35.6956 24.9897 34.2434 25.1858 32.8029 24.4908C33.6101 25.6242 31.7114 25.0076 30.4226 24.7856C28.9623 26.4629 28.4739 24.9015 27.7494 24.1227L26.0079 24.172L25.2716 25.2265C24.4638 26.0127 23.7935 25.4966 23.1133 25.0797C22.2457 25.1266 21.2886 25.9788 20.5375 24.9811C20.0319 24.8639 17.8212 25.7025 19.7026 24.246L22.2062 23.1662C16.4226 22.3128 15.8602 16.6179 18.5513 14.85C19.6014 13.3626 20.3038 12.4616 22.0095 12.1027L22.353 9.01204C21.4243 8.90104 21.4576 7.12136 22.5737 7.17193L22.7211 2.60865C22.7865 1.58685 24.647 0.432461 27.039 0.352295Z" fill="white" stroke="black" stroke-width="0.616659" stroke-linecap="round" stroke-linejoin="round"/>
<path d="M22.3603 9.01782L25.6718 11.4216H28.6157L31.4856 9.3613M22.0168 12.1085C24.1098 13.5527 26.4691 14.8712 25.2062 17.8977C24.839 17.6572 24.5253 17.3437 24.2846 16.9766C24.044 16.6095 23.8816 16.1967 23.8076 15.7641C23.7065 16.8161 23.1681 17.9137 22.1149 17.2854L18.5586 14.8564M22.2135 23.1714C24.1091 22.8964 25.5719 21.3917 25.3289 19.5411L27.9293 15.7881L32.7374 13.1143" fill="white"/>
<path d="M22.3603 9.01782L25.6718 11.4216H28.6157L31.4856 9.3613M22.0168 12.1085C24.1098 13.5527 26.4691 14.8712 25.2062 17.8977C24.839 17.6572 24.5253 17.3437 24.2846 16.9766C24.044 16.6095 23.8816 16.1967 23.8076 15.7641C23.7065 16.8161 23.1681 17.9137 22.1149 17.2854L18.5586 14.8564M22.2135 23.1714C24.1091 22.8964 25.5719 21.3917 25.3289 19.5411L27.9293 15.7881L32.7374 13.1143" stroke="black" stroke-width="0.616659" stroke-linecap="round" stroke-linejoin="round"/>
<path d="M31.6258 11.3412L26.4736 14.1871L25.1003 14.3844M34.2256 19.5348C32.0568 18.7251 29.946 17.8365 29.1234 15.1688ZM34.4211 16.5804C32.705 15.9403 31.2299 16.2184 30.5793 14.1069ZM22.5732 7.17138L24.9036 7.19604C25.149 5.66056 29.2153 5.82398 29.3189 7.14671L31.5019 7.09738" fill="white"/>
<path d="M31.6258 11.3412L26.4736 14.1871L25.1003 14.3844M34.2256 19.5348C32.0568 18.7251 29.946 17.8365 29.1234 15.1688M34.4211 16.5804C32.705 15.9403 31.2299 16.2184 30.5793 14.1069M22.5732 7.17138L24.9036 7.19604C25.149 5.66056 29.2153 5.82398 29.3189 7.14671L31.5019 7.09738" stroke="black" stroke-width="0.616659" stroke-linecap="round" stroke-linejoin="round"/>
<mask id="path-8-outside-1_739_3394" maskUnits="userSpaceOnUse" x="1" y="0.352295" width="23" height="27" fill="black">
<rect fill="white" x="1" y="0.352295" width="23" height="27"/>
<path d="M23.4163 24.0417C23.0944 24.3636 22.6116 24.674 21.9679 24.9728C21.3471 25.2717 20.6459 25.5476 19.8642 25.8005C19.0825 26.0534 18.2778 26.2488 17.4502 26.3868C16.6225 26.5477 15.8408 26.6282 15.1051 26.6282C13.0819 26.6282 11.2541 26.3178 9.62173 25.6971C8.01236 25.0763 6.6214 24.2256 5.44886 23.1451C4.29931 22.0415 3.41416 20.7425 2.7934 19.2481C2.19564 17.7537 1.89676 16.1328 1.89676 14.3855C1.89676 12.2013 2.24162 10.2816 2.93135 8.62624C3.62108 6.9479 4.56371 5.54545 5.75924 4.41889C6.95477 3.26934 8.32274 2.40718 9.86313 1.83241C11.4265 1.25763 13.0704 0.970243 14.7947 0.970243C16.3121 0.970243 17.7146 1.14268 19.0021 1.48754C20.3125 1.83241 21.4276 2.26923 22.3472 2.79803L21.0368 6.52257C20.5999 6.26967 20.0366 6.02826 19.3469 5.79835C18.6572 5.54545 17.956 5.35003 17.2432 5.21208C16.5535 5.07414 15.9098 5.00516 15.312 5.00516C13.8636 5.00516 12.5646 5.21208 11.415 5.62592C10.2885 6.01677 9.32285 6.60304 8.51816 7.38473C7.71348 8.16642 7.09272 9.12055 6.65589 10.2471C6.24205 11.3507 6.03513 12.6152 6.03513 14.0406C6.03513 15.3281 6.25355 16.5007 6.69038 17.5582C7.1502 18.6158 7.78245 19.524 8.58713 20.2827C9.41481 21.0414 10.3804 21.6276 11.484 22.0415C12.6106 22.4323 13.8521 22.6278 15.2085 22.6278C15.9902 22.6278 16.7489 22.5588 17.4846 22.4208C18.2204 22.2829 18.8411 22.0645 19.3469 21.7656V17.5927H14.6568V13.7302H23.4163V24.0417Z"/>
</mask>
<path d="M23.4163 24.0417C23.0944 24.3636 22.6116 24.674 21.9679 24.9728C21.3471 25.2717 20.6459 25.5476 19.8642 25.8005C19.0825 26.0534 18.2778 26.2488 17.4502 26.3868C16.6225 26.5477 15.8408 26.6282 15.1051 26.6282C13.0819 26.6282 11.2541 26.3178 9.62173 25.6971C8.01236 25.0763 6.6214 24.2256 5.44886 23.1451C4.29931 22.0415 3.41416 20.7425 2.7934 19.2481C2.19564 17.7537 1.89676 16.1328 1.89676 14.3855C1.89676 12.2013 2.24162 10.2816 2.93135 8.62624C3.62108 6.9479 4.56371 5.54545 5.75924 4.41889C6.95477 3.26934 8.32274 2.40718 9.86313 1.83241C11.4265 1.25763 13.0704 0.970243 14.7947 0.970243C16.3121 0.970243 17.7146 1.14268 19.0021 1.48754C20.3125 1.83241 21.4276 2.26923 22.3472 2.79803L21.0368 6.52257C20.5999 6.26967 20.0366 6.02826 19.3469 5.79835C18.6572 5.54545 17.956 5.35003 17.2432 5.21208C16.5535 5.07414 15.9098 5.00516 15.312 5.00516C13.8636 5.00516 12.5646 5.21208 11.415 5.62592C10.2885 6.01677 9.32285 6.60304 8.51816 7.38473C7.71348 8.16642 7.09272 9.12055 6.65589 10.2471C6.24205 11.3507 6.03513 12.6152 6.03513 14.0406C6.03513 15.3281 6.25355 16.5007 6.69038 17.5582C7.1502 18.6158 7.78245 19.524 8.58713 20.2827C9.41481 21.0414 10.3804 21.6276 11.484 22.0415C12.6106 22.4323 13.8521 22.6278 15.2085 22.6278C15.9902 22.6278 16.7489 22.5588 17.4846 22.4208C18.2204 22.2829 18.8411 22.0645 19.3469 21.7656V17.5927H14.6568V13.7302H23.4163V24.0417Z" fill="#282828"/>
<path d="M23.4163 24.0417L23.7531 24.3784L23.8925 24.239V24.0417H23.4163ZM21.9679 24.9728L21.7673 24.5409L21.7613 24.5438L21.9679 24.9728ZM19.8642 25.8005L19.7176 25.3474L19.8642 25.8005ZM17.4502 26.3868L17.3718 25.9169L17.3593 25.9193L17.4502 26.3868ZM9.62173 25.6971L9.45035 26.1414L9.45245 26.1422L9.62173 25.6971ZM5.44886 23.1451L5.11899 23.4887L5.12613 23.4952L5.44886 23.1451ZM2.7934 19.2481L2.3512 19.425L2.35361 19.4308L2.7934 19.2481ZM2.93135 8.62624L3.37095 8.80941L3.37183 8.80726L2.93135 8.62624ZM5.75924 4.41889L6.08586 4.7655L6.08932 4.76217L5.75924 4.41889ZM9.86313 1.83241L9.6988 1.38543L9.69665 1.38623L9.86313 1.83241ZM19.0021 1.48754L18.8788 1.94756L18.8809 1.94809L19.0021 1.48754ZM22.3472 2.79803L22.7965 2.95609L22.9279 2.58256L22.5846 2.38518L22.3472 2.79803ZM21.0368 6.52257L20.7981 6.93471L21.2953 7.22254L21.486 6.68063L21.0368 6.52257ZM19.3469 5.79835L19.1829 6.24567L19.1963 6.25014L19.3469 5.79835ZM17.2432 5.21208L17.1498 5.67907L17.1527 5.67963L17.2432 5.21208ZM11.415 5.62592L11.5711 6.07587L11.5763 6.074L11.415 5.62592ZM8.51816 7.38473L8.84999 7.72632L8.84999 7.72632L8.51816 7.38473ZM6.65589 10.2471L6.21185 10.0749L6.20999 10.0799L6.65589 10.2471ZM6.69038 17.5582L6.25014 17.7401L6.25364 17.7481L6.69038 17.5582ZM8.58713 20.2827L8.2604 20.6292L8.26534 20.6337L8.58713 20.2827ZM11.484 22.0415L11.3167 22.4875L11.3279 22.4914L11.484 22.0415ZM17.4846 22.4208L17.3969 21.9528L17.3969 21.9528L17.4846 22.4208ZM19.3469 21.7656L19.5892 22.1756L19.8231 22.0373V21.7656H19.3469ZM19.3469 17.5927H19.8231V17.1165H19.3469V17.5927ZM14.6568 17.5927H14.1805V18.069H14.6568V17.5927ZM14.6568 13.7302V13.254H14.1805V13.7302H14.6568ZM23.4163 13.7302H23.8925V13.254H23.4163V13.7302ZM23.0796 23.705C22.8129 23.9716 22.3856 24.2539 21.7673 24.5409L22.1684 25.4048C22.8377 25.094 23.376 24.7555 23.7531 24.3784L23.0796 23.705ZM21.7613 24.5438C21.1632 24.8317 20.4826 25.0999 19.7176 25.3474L20.0108 26.2536C20.8092 25.9953 21.531 25.7117 22.1745 25.4019L21.7613 24.5438ZM19.7176 25.3474C18.9587 25.5929 18.1769 25.7829 17.3719 25.917L17.5285 26.8565C18.3788 26.7148 19.2063 26.5139 20.0108 26.2536L19.7176 25.3474ZM17.3593 25.9193C16.5573 26.0752 15.8062 26.152 15.1051 26.152V27.1044C15.8753 27.1044 16.6877 27.0202 17.5411 26.8543L17.3593 25.9193ZM15.1051 26.152C13.1307 26.152 11.3615 25.8491 9.791 25.2519L9.45245 26.1422C11.1467 26.7865 13.0331 27.1044 15.1051 27.1044V26.152ZM9.79311 25.2527C8.23506 24.6518 6.89657 23.8316 5.77159 22.7949L5.12613 23.4952C6.34624 24.6197 7.78966 25.5008 9.45035 26.1414L9.79311 25.2527ZM5.77867 22.8015C4.67723 21.7441 3.82917 20.5001 3.2332 19.0654L2.35361 19.4308C2.99915 20.9848 3.9214 22.3388 5.11906 23.4886L5.77867 22.8015ZM3.23557 19.0712C2.66216 17.6377 2.37298 16.0774 2.37298 14.3855H1.42053C1.42053 16.1882 1.72911 17.8696 2.35124 19.4249L3.23557 19.0712ZM2.37298 14.3855C2.37298 12.2509 2.71005 10.3956 3.37094 8.80941L2.49176 8.44308C1.77319 10.1676 1.42053 12.1518 1.42053 14.3855H2.37298ZM3.37183 8.80726C4.03852 7.18498 4.94456 5.84092 6.08584 4.76548L5.43265 4.0723C4.18286 5.24998 3.20364 6.71083 2.49087 8.44522L3.37183 8.80726ZM6.08932 4.76217C7.23835 3.65733 8.55076 2.8304 10.0296 2.27858L9.69665 1.38623C8.09472 1.98396 6.6712 2.88135 5.42917 4.07561L6.08932 4.76217ZM10.0275 2.27938C11.5364 1.72463 13.1244 1.44647 14.7947 1.44647V0.494017C13.0163 0.494017 11.3167 0.790627 9.6988 1.38543L10.0275 2.27938ZM14.7947 1.44647C16.2761 1.44647 17.6366 1.61482 18.8788 1.94755L19.1253 1.02753C17.7925 0.670535 16.3481 0.494017 14.7947 0.494017V1.44647ZM18.8809 1.94809C20.1613 2.28505 21.2351 2.7079 22.1099 3.21087L22.5846 2.38518C21.6201 1.83057 20.4638 1.37976 19.1232 1.027L18.8809 1.94809ZM21.898 2.63997L20.5875 6.3645L21.486 6.68063L22.7965 2.95609L21.898 2.63997ZM21.2754 6.11043C20.8014 5.83602 20.2057 5.58263 19.4975 5.34656L19.1963 6.25014C19.8676 6.47389 20.3985 6.70332 20.7981 6.93471L21.2754 6.11043ZM19.5109 5.35123C18.7975 5.08967 18.0717 4.88737 17.3337 4.74453L17.1527 5.67963C17.8402 5.81268 18.5169 6.00123 19.183 6.24547L19.5109 5.35123ZM17.3366 4.7451C16.6214 4.60205 15.946 4.52894 15.312 4.52894V5.48139C15.8735 5.48139 16.4856 5.54622 17.1498 5.67906L17.3366 4.7451ZM15.312 4.52894C13.8185 4.52894 12.4636 4.74228 11.2537 5.17784L11.5763 6.074C12.6655 5.68188 13.9086 5.48139 15.312 5.48139V4.52894ZM11.2589 5.176C10.0708 5.58821 9.04408 6.2099 8.18633 7.04314L8.84999 7.72632C9.60161 6.99617 10.5061 6.44532 11.5711 6.07584L11.2589 5.176ZM8.18633 7.04314C7.32879 7.87618 6.67154 8.88949 6.21188 10.0749L7.09991 10.4193C7.5139 9.35161 8.09816 8.45667 8.84999 7.72632L8.18633 7.04314ZM6.20999 10.0799C5.77239 11.2468 5.55891 12.5697 5.55891 14.0406H6.51136C6.51136 12.6607 6.71172 11.4545 7.1018 10.4143L6.20999 10.0799ZM5.55891 14.0406C5.55891 15.3827 5.78677 16.618 6.25022 17.74L7.13054 17.3764C6.72032 16.3833 6.51136 15.2735 6.51136 14.0406H5.55891ZM6.25364 17.7481C6.73805 18.8622 7.40685 19.8244 8.26044 20.6292L8.91383 19.9362C8.15805 19.2236 7.56235 18.3694 7.12711 17.3684L6.25364 17.7481ZM8.26534 20.6337C9.1402 21.4357 10.159 22.0532 11.3168 22.4874L11.6512 21.5956C10.6019 21.2021 9.68942 20.6471 8.90893 19.9316L8.26534 20.6337ZM11.3279 22.4914C12.511 22.9019 13.8061 23.104 15.2085 23.104V22.1515C13.898 22.1515 12.7101 21.9628 11.6401 21.5916L11.3279 22.4914ZM15.2085 23.104C16.0184 23.104 16.8065 23.0325 17.5724 22.8889L17.3969 21.9528C16.6914 22.0851 15.9621 22.1515 15.2085 22.1515V23.104ZM17.5724 22.8889C18.3484 22.7434 19.0246 22.5092 19.5892 22.1756L19.1046 21.3556C18.6576 21.6197 18.0924 21.8224 17.3969 21.9528L17.5724 22.8889ZM19.8231 21.7656V17.5927H18.8707V21.7656H19.8231ZM19.3469 17.1165H14.6568V18.069H19.3469V17.1165ZM15.133 17.5927V13.7302H14.1805V17.5927H15.133ZM14.6568 14.2065H23.4163V13.254H14.6568V14.2065ZM22.9401 13.7302V24.0417H23.8925V13.7302H22.9401Z" fill="#83ED98" mask="url(#path-8-outside-1_739_3394)"/>
<path d="M26.4519 15.0265C26.5086 14.8989 26.9133 14.7664 27.0404 14.6855C27.149 14.6164 27.3076 14.5309 27.4308 14.493C27.5592 14.4535 27.0708 14.7481 27.0596 14.7983C27.0397 14.8879 27.777 14.7015 27.8268 14.68C28.2786 14.4848 28.5545 14.0453 29.0367 13.8606C29.2735 13.7699 29.8576 13.6893 30.0019 13.4729C30.0229 13.4414 29.6281 13.5835 29.6087 13.5911C29.3846 13.6783 29.155 13.7684 28.913 13.7863C28.7858 13.7958 28.674 13.8219 28.5802 13.9156C28.5611 13.9347 28.9088 13.8142 28.9872 13.7918C29.1366 13.7492 28.7206 13.9629 28.5692 13.9981C28.4246 14.0317 28.1374 14.1512 28.0413 14.2593C27.9311 14.3832 28.3772 14.0899 28.4537 14.0586C28.738 13.9423 29.0423 13.8495 29.3172 13.7121C30.0435 13.3489 30.8297 13.0381 31.5885 12.7387C31.8162 12.6488 32.0691 12.5862 32.2869 12.4747C32.5631 12.3333 32.7806 12.1046 33.0569 11.9632C33.3575 11.8094 33.6452 11.6358 33.9423 11.4738C34.5065 11.166 33.4147 11.6183 33.3126 11.6608C32.8149 11.8677 32.3485 12.1003 31.869 12.3427C31.5382 12.5099 31.1983 12.6813 30.8488 12.8047C30.6664 12.8691 30.3576 12.9607 30.2136 13.0961C30.177 13.1306 30.4574 12.8919 30.5408 12.8542C30.933 12.677 31.3736 12.5669 31.7755 12.3977C32.122 12.2518 32.4683 11.9243 32.7599 11.6882C32.7854 11.6676 33.0533 11.5123 32.9854 11.5123C32.9246 11.5123 32.7682 11.6055 32.7159 11.6388C32.4747 11.7922 32.2013 12.0737 31.924 12.153C31.5562 12.258 31.2489 12.6012 30.8571 12.6012" stroke="#74392A" stroke-linecap="round"/>
<path d="M30.8075 12.6506C30.6766 12.9781 30.1991 13.0364 29.9166 13.1978C29.5741 13.3935 29.2281 13.6192 28.9157 13.8605C28.8216 13.9333 28.6674 14.0902 28.561 14.1328C28.2199 14.2692 29.1781 13.73 29.5096 13.5718C29.7829 13.4414 30.0986 13.1951 30.4116 13.1951" stroke="#74392A" stroke-linecap="round"/>
<path d="M31.9459 12.4031C33.0553 12.0618 33.8924 11.1467 34.9212 10.6323C35.2196 10.4831 34.3287 10.9395 34.0303 11.0888C33.7329 11.2374 32.9199 11.8138 33.1723 11.5975C33.4725 11.3402 33.8367 11.169 34.2007 11.0145C34.5469 10.8677 34.852 10.6809 35.1852 10.5113C35.5763 10.3122 35.9339 10.0727 36.3181 9.86235C36.7069 9.64943 35.6485 10.4535 35.2622 10.6708C34.948 10.8475 34.6119 11.0365 34.33 11.262C34.1585 11.3992 34.3514 11.3671 34.4565 11.3005C34.6882 11.1535 34.9292 10.9836 35.1412 10.8083C35.6159 10.4157 36.0963 9.99288 36.5986 9.63411C36.7065 9.55701 37.2118 9.14598 36.78 9.2464C36.6919 9.2669 36.4501 9.58315 36.4501 9.33439C36.4501 9.08807 36.3501 8.51295 36.6975 8.44346C36.871 8.40876 37.539 8.30631 37.539 8.07224C37.539 7.81618 37.8688 8.17922 37.924 8.26747C38.0145 8.41232 38.1415 8.41928 38.2429 8.54245C38.3977 8.73039 38.6307 8.8862 38.8039 9.05941C38.8862 9.14176 39.0938 9.25618 39.1146 9.38113C39.1205 9.41666 38.6964 9.57784 38.6279 9.58187C38.2921 9.60162 38.1026 10.0463 37.8112 10.1758C37.698 10.2262 37.635 10.3937 37.5142 10.4206C37.2899 10.4704 37.2183 10.4067 37.0055 10.2858C36.6926 10.108 36.8795 10.1011 37.1128 9.8816C37.2835 9.72087 37.5177 9.63387 37.638 9.43338" stroke="#74392A" stroke-linecap="round"/>
<path d="M37.539 9.33444C37.5854 8.96368 38.398 9.59916 37.957 9.26844C37.7458 9.11004 37.5287 9.02708 37.3411 8.83948" stroke="#74392A" stroke-linecap="round"/>
<path d="M37.7865 8.88889C37.5979 8.72126 37.3355 8.91229 37.1925 9.03738" stroke="#74392A" stroke-linecap="round"/>
<path d="M36.8955 10.1759C36.5699 10.2761 36.3068 10.5719 35.9551 10.5719" stroke="#74392A" stroke-linecap="round"/>
<path d="M35.9551 10.1264C35.6938 10.1264 35.5894 10.1231 35.3777 10.2501C35.1895 10.363 34.6652 10.3806 34.5692 10.5966C34.4689 10.8223 34.2006 11.0949 33.9478 11.119C33.7882 11.1342 33.6504 11.2153 33.4913 11.2153C33.2489 11.2153 33.4472 11.2753 33.6068 11.1933C33.8747 11.0557 34.1369 10.7654 34.4208 10.6708" stroke="#74392A" stroke-linecap="round"/>
<path d="M33.2328 11.6112C33.0447 11.862 32.6861 11.8786 32.4161 11.9824C32.3228 12.0183 32.167 11.9671 32.1054 12.0567C32.0381 12.1546 31.8424 12.1897 31.7369 12.2547C31.3785 12.4752 32.1317 12.2362 32.1906 12.1282C32.2317 12.0528 32.4829 11.8883 32.2676 11.9109C32.1182 11.9267 32.0422 12.0539 31.9459 12.1502C31.8388 12.2573 31.6322 12.3409 31.5004 12.4141C31.3657 12.489 31.2594 12.5574 31.1072 12.6259C30.9514 12.696 30.7726 12.7573 30.8102 12.9641C30.8452 13.1561 31.7517 12.5845 31.4894 12.7496C31.2252 12.916 31.063 13.1733 30.8075 13.3436" stroke="#74392A" stroke-linecap="round"/>
<path d="M30.9065 12.9477C31.0766 13.0965 31.2395 12.5652 31.3025 12.5022" stroke="#74392A" stroke-linecap="round"/>
<path d="M32.0944 12.3536C31.8525 12.6107 31.4814 12.9971 31.1045 12.9971" stroke="#74392A" stroke-linecap="round"/>
<path d="M31.6489 12.5516C31.5365 12.5657 31.155 12.9566 31.2144 12.9091C31.3035 12.8378 31.4643 12.8183 31.5499 12.7276C31.6114 12.6625 31.597 12.5903 31.6984 12.5626C31.7788 12.5407 31.8479 12.5347 31.7974 12.6231C31.6862 12.8177 31.3185 12.8673 31.2034 13.0686C31.1816 13.1068 31.0498 13.1537 31.0907 13.1374C31.2024 13.0927 31.3032 13.0021 31.4152 12.9504C31.53 12.8974 31.6267 12.8103 31.7479 12.7496" stroke="#74392A" stroke-linecap="round"/>
<path d="M31.7974 12.0734C31.7974 12.1627 31.713 12.1405 31.6571 12.1871C31.6063 12.2295 31.5514 12.2752 31.5049 12.3165C31.3935 12.4155 31.2645 12.4949 31.1366 12.5716" stroke="#74392A" stroke-linecap="round"/>
<path d="M31.4399 12.2251C31.3832 12.203 31.3257 12.2842 31.2907 12.3201C31.254 12.3577 31.2084 12.399 31.1799 12.4417" stroke="#74392A" stroke-linecap="round"/>
<path d="M31.9382 12.7016C31.961 12.6948 31.9818 12.6617 32.0032 12.6475" stroke="#74392A" stroke-linecap="round"/>
<path d="M32.5448 12.3117C32.6458 12.2668 32.7279 12.1727 32.8162 12.1064C32.8871 12.0533 32.9834 12.0396 33.0539 11.9867" stroke="#74392A" stroke-linecap="round"/>
<path d="M30.595 13.3624C30.5778 13.4055 30.4619 13.4345 30.4217 13.4623C30.3964 13.4798 30.373 13.496 30.3543 13.5201C30.3455 13.5313 30.3178 13.5235 30.305 13.5273C30.2731 13.5367 30.2324 13.5638 30.2051 13.5815C30.1629 13.6088 30.1104 13.6175 30.0666 13.6441C29.9675 13.7043 29.8595 13.7436 29.7633 13.8126C29.6866 13.8676 29.5756 13.8884 29.4901 13.9305C29.4738 13.9386 29.3128 14.0142 29.3902 14.0124C29.456 14.0108 29.5561 13.984 29.6117 13.9425C29.6552 13.9101 29.7053 13.9025 29.7525 13.8739C29.7743 13.8608 29.8807 13.8018 29.856 13.8222C29.7898 13.8768 29.7229 13.9298 29.6466 13.969C29.4896 14.0497 29.3576 14.1792 29.1929 14.2422C29.0746 14.2874 28.9508 14.3362 28.8402 14.3915" stroke="#74392A" stroke-linecap="round"/>
<path d="M29.7935 13.3841C29.8587 13.3009 29.9211 13.2154 29.9866 13.1325C30.0106 13.1022 30.0467 13.0668 30.0534 13.0266C30.0571 13.0048 30.1696 12.9312 30.1401 13.005" stroke="#74392A" stroke-linecap="round"/>
<path d="M30.1076 13.0591C29.9915 13.211 29.8807 13.3099 29.7044 13.3865C29.5715 13.4441 29.4388 13.5125 29.3024 13.5616C29.2752 13.5713 29.276 13.5661 29.2939 13.5453C29.3271 13.5068 29.3643 13.4662 29.4119 13.4454C29.4353 13.4352 29.4618 13.436 29.4853 13.4262C29.5199 13.4116 29.5484 13.3848 29.5834 13.3702C29.747 13.3021 29.277 13.549 29.1315 13.65C29.063 13.6976 28.9855 13.725 28.9136 13.7656C28.8884 13.7798 28.8596 13.7914 28.8378 13.8107C28.8174 13.8287 28.8757 13.7722 28.8835 13.7644C28.9285 13.7194 28.9981 13.6885 29.0502 13.6512C29.0695 13.6375 29.1593 13.564 29.0954 13.6187C28.9829 13.7151 28.8596 13.7909 28.7283 13.8595C28.5829 13.9353 28.4314 13.9783 28.2817 14.0424C28.1214 14.1111 27.9699 14.1978 27.8196 14.2855C27.7499 14.3262 27.6742 14.334 27.6059 14.3704C27.588 14.38 27.5556 14.3984 27.5476 14.4191C27.5451 14.4256 27.5993 14.4239 27.6053 14.4239" stroke="#74392A" stroke-linecap="round"/>
<path d="M28.3312 14.7164C28.3204 14.6734 28.2099 14.7368 28.206 14.7682C28.2058 14.7696 28.2272 14.7517 28.2277 14.7514C28.2483 14.7363 28.273 14.7234 28.2963 14.7128C28.3388 14.6936 28.3892 14.6732 28.4238 14.6406C28.4469 14.6189 28.4731 14.601 28.4997 14.5829C28.5348 14.5588 28.6096 14.5666 28.6333 14.5263C28.6522 14.4941 28.5564 14.5323 28.5237 14.5504C28.4886 14.5698 28.4471 14.5842 28.4154 14.6081C28.2491 14.7338 28.0495 14.8063 27.8786 14.9223C27.8137 14.9663 27.75 15.0061 27.6897 15.0571C27.5806 15.149 27.4632 15.2041 27.3394 15.2701C27.2326 15.3271 27.1263 15.3922 27.0271 15.4627C26.9108 15.5453 26.782 15.6033 26.6895 15.7142C26.6032 15.8178 26.5211 15.9243 26.4741 16.0518C26.4711 16.0599 26.4689 15.9288 26.4674 15.899C26.4651 15.8506 26.4521 15.7983 26.4356 15.7527C26.3776 15.5933 26.3586 15.4028 26.2725 15.252C26.2404 15.1958 26.2247 15.1333 26.181 15.0847C26.1583 15.0596 26.1164 15.0481 26.0961 15.0222C26.0791 15.0003 26.1438 15.0506 26.1672 15.0655C26.1984 15.0854 26.233 15.0997 26.2598 15.1257C26.3829 15.2445 26.4427 15.3828 26.4861 15.5457C26.5201 15.6732 26.5766 15.8055 26.5499 15.9405C26.5342 16.0195 26.4809 16.098 26.4512 16.174C26.4218 16.2491 26.3928 16.3248 26.3489 16.393C26.3043 16.4624 26.2489 16.5264 26.2117 16.6C26.1974 16.6282 26.1853 16.6565 26.1732 16.6855C26.1706 16.6915 26.1529 16.7016 26.1587 16.6987C26.2309 16.6626 26.2744 16.602 26.3272 16.5435C26.3842 16.4802 26.4383 16.4207 26.4897 16.3521C26.5747 16.2387 26.6629 16.1274 26.7389 16.0079C26.7756 15.95 26.8265 15.9019 26.8592 15.8418C26.8827 15.7985 26.8938 15.7584 26.9128 15.7142C26.9342 15.6641 26.979 15.6279 27.0048 15.5836C27.0229 15.5526 27.0462 15.5088 27.0692 15.4807C27.0818 15.4653 27.0931 15.4455 27.112 15.4374C27.1212 15.4334 27.1061 15.4569 27.1011 15.4657C27.0851 15.4939 27.0784 15.523 27.0668 15.5529C27.0345 15.6365 26.9723 15.7045 26.9332 15.7846C26.8991 15.8546 26.8551 15.9124 26.8159 15.9784C26.7189 16.1415 26.6191 16.2699 26.4783 16.3966C26.4322 16.4381 26.4059 16.4998 26.3651 16.5471C26.3184 16.6014 26.2643 16.6475 26.2291 16.7108C26.1698 16.8176 26.1057 16.9191 26.0673 17.0345" stroke="#74392A" stroke-linecap="round"/>
<path d="M26.2297 15.8429C26.2064 15.84 26.2576 15.7979 26.2646 15.7888C26.2838 15.7639 26.2941 15.7401 26.2947 15.7081C26.2962 15.6302 26.2947 15.552 26.2947 15.4741C26.2947 15.3614 26.1755 15.2698 26.1755 15.1605" stroke="#74392A" stroke-linecap="round"/>
<path d="M25.9372 14.9114C25.9239 14.8988 25.909 14.889 25.8939 14.8789" stroke="#74392A" stroke-linecap="round"/>
<path d="M25.829 14.9222L25.7856 14.9114" stroke="#74392A" stroke-linecap="round"/>
<path d="M25.8939 15.1172C25.9363 15.1569 25.932 15.2664 25.9541 15.3212C25.9758 15.375 26.0019 15.4371 26.0341 15.4855C26.0541 15.5154 26.0462 15.5595 26.0564 15.5938C26.0775 15.6644 26.0781 15.7323 26.0781 15.8056C26.0781 15.9896 26.0239 16.168 26.0239 16.352" stroke="#74392A" stroke-linecap="round"/>
<path d="M26.3489 14.9114C26.3503 14.8991 26.3808 14.7816 26.3657 14.7886C26.3159 14.8121 26.2882 14.8356 26.2297 14.8356" stroke="#74392A" stroke-linecap="round"/>
<path d="M26.5872 14.8247C26.6392 14.8013 26.6901 14.8092 26.7388 14.7814" stroke="#74392A" stroke-linecap="round"/>
<path d="M27.1396 15.6588C27.1466 15.7146 27.2563 15.5739 27.2323 15.5987C27.1698 15.6631 27.1025 15.7444 27.0505 15.8177C26.964 15.9396 26.8874 16.0599 26.7821 16.1679C26.7053 16.2468 26.6424 16.3413 26.5757 16.4285C26.5325 16.4851 26.4885 16.5921 26.4193 16.6229C26.3948 16.6338 26.3741 16.6745 26.3585 16.6951C26.3219 16.7433 26.2841 16.7958 26.2363 16.8335C26.1943 16.8667 26.1782 16.9279 26.1436 16.9653C26.0934 17.0197 26.0757 17.1067 26.0131 17.1537" stroke="#74392A" stroke-linecap="round"/>
<path d="M25.9264 17.4569C25.9112 17.5503 25.8953 17.64 25.8699 17.7301C25.8509 17.7972 25.788 17.8616 25.7567 17.9251C25.7265 17.9865 25.6552 18.0276 25.6123 18.0792C25.4633 18.2583 25.3241 18.4442 25.1718 18.6208C25.1162 18.6852 25.0333 18.7472 24.9515 18.7676" stroke="#74392A" stroke-linecap="round"/>
<path d="M24.5832 18.5739C24.4511 18.5739 24.3905 18.5342 24.3034 18.4409C24.2131 18.3441 24.409 18.4318 24.4278 18.434C24.4934 18.4417 24.5496 18.532 24.616 18.5273C24.6386 18.5256 24.5877 18.4921 24.5746 18.4737C24.5544 18.4455 24.528 18.4341 24.5124 18.4029C24.4928 18.3637 24.4347 18.3276 24.4062 18.2863C24.3914 18.265 24.4012 18.2381 24.3872 18.2163C24.3673 18.1855 24.3467 18.155 24.3267 18.1239C24.3034 18.0877 24.2712 18.0391 24.2352 18.0151C24.1718 17.9729 24.1324 17.9519 24.1324 17.8709C24.1324 17.7954 24.1479 17.7211 24.1479 17.6489C24.1479 17.5793 24.1518 17.5085 24.1479 17.439C24.1434 17.3573 24.0236 17.3286 24.0236 17.2369" stroke="#74392A" stroke-linecap="round"/>
<path d="M24.4743 18.1853C24.5315 18.1872 24.6678 18.2008 24.7093 18.2578C24.7465 18.3091 24.8293 18.3955 24.7507 18.2785C24.6843 18.1797 24.5763 18.1124 24.5201 18.0056C24.49 17.9484 24.4145 17.897 24.3966 17.8433" stroke="#74392A" stroke-linecap="round"/>
<path d="M24.4588 18.5584C24.4588 18.6714 24.4828 18.8114 24.4312 18.9125C24.3692 19.0338 24.4045 19.2148 24.369 19.3478C24.3567 19.394 24.3396 19.4601 24.3344 19.5067C24.3331 19.5184 24.3319 19.4314 24.3318 19.4307C24.3216 19.3331 24.2932 19.2354 24.2688 19.1405C24.2383 19.0216 24.2263 18.8879 24.1703 18.7795C24.1395 18.7198 24.1479 18.6512 24.1479 18.586C24.1479 18.4743 24.1479 18.3626 24.1479 18.2509C24.1479 18.2012 24.1479 18.0364 24.1479 18.1853C24.1479 18.5906 24.1479 18.996 24.1479 19.4013C24.1479 19.6855 24.1532 19.969 24.1479 20.2529C24.1469 20.3045 24.1632 20.3689 24.1237 20.4084C24.1154 20.4166 24.1468 20.2511 24.1479 20.2253C24.1559 20.04 24.1479 19.8528 24.1479 19.6674C24.1479 19.5335 24.1463 19.6031 24.1479 19.7002C24.1498 19.8163 24.1556 19.9753 24.1945 20.0871C24.2235 20.1704 24.2129 20.2007 24.2757 20.0906C24.3489 19.9622 24.3789 19.806 24.3932 19.6604C24.4089 19.4991 24.4496 19.0167 24.4588 19.1785C24.4671 19.3247 24.5141 19.465 24.521 19.6121C24.5215 19.6241 24.5676 19.5133 24.5676 19.4756" stroke="#74392A" stroke-linecap="round"/>
<path d="M24.5676 19.118C24.5676 19.1283 24.5654 19.346 24.6143 19.2787C24.6252 19.2636 24.692 19.1349 24.692 19.1958" stroke="#74392A" stroke-linecap="round"/>
<path d="M24.6454 19.6466C24.6382 19.733 24.5849 19.804 24.5832 19.8953C24.5819 19.9653 24.598 20.0549 24.5668 20.1199C24.4967 20.2658 24.4304 20.4108 24.3733 20.563C24.3357 20.6634 24.3087 20.7593 24.249 20.8506C24.2154 20.9018 24.2046 20.9572 24.179 21.0121C24.1577 21.0577 24.1189 21.0982 24.1168 21.1511C24.1161 21.1714 24.1477 21.064 24.1514 21.0527C24.1795 20.9654 24.2385 20.8896 24.2878 20.8134C24.3161 20.7697 24.3514 20.7314 24.3803 20.6882C24.3975 20.6624 24.3864 20.6337 24.4001 20.6105C24.4167 20.5823 24.5104 20.588 24.4796 20.6329C24.4388 20.6923 24.3891 20.7475 24.3509 20.8048C24.3149 20.8588 24.2848 20.9195 24.2412 20.968C24.1856 21.0297 24.1098 21.0989 24.0702 21.1701C24.0158 21.268 23.9925 21.3246 23.9925 21.4379C23.9925 21.5058 24.0002 21.5575 23.9553 21.6123C23.8933 21.6881 24.0145 21.5617 24.0391 21.5432" stroke="#74392A" stroke-linecap="round"/>
<path d="M24.3188 21.2789C24.3762 21.2698 24.4292 21.2068 24.4812 21.1787C24.5617 21.1352 24.6273 21.0532 24.6419 20.9628C24.6664 20.8104 24.6304 20.654 24.6609 20.5016" stroke="#74392A" stroke-linecap="round"/>
<path d="M23.8991 22.0406C23.8965 22.0667 23.8831 22.0828 23.868 22.1028" stroke="#74392A" stroke-linecap="round"/>
<path d="M23.868 22.1029C23.8873 22.0595 23.8915 22.0243 23.8991 21.9785" stroke="#74392A" stroke-linecap="round"/>
<path d="M23.8992 21.8541C23.9167 21.5652 24.008 21.2856 24.008 20.9931C24.008 20.6423 24.0106 20.3051 24.0702 19.9575" stroke="#74392A" stroke-linecap="round"/>
<path d="M17.7396 18.5218C17.7523 18.566 17.786 18.604 17.8064 18.6449C17.8406 18.7132 17.8675 18.7884 17.8853 18.8626C17.8888 18.8773 17.9018 18.9641 17.9018 18.9542C17.9018 18.8732 17.8822 18.7966 17.8702 18.717C17.8581 18.6359 17.8612 18.5539 17.8612 18.4723C17.8612 18.4261 17.8612 18.4178 17.8612 18.4723C17.8612 18.687 17.8612 18.9017 17.8612 19.1164" stroke="#74392A" stroke-width="0.5" stroke-linecap="round"/>
<path d="M17.8612 18.8326C17.8576 18.4936 17.8207 18.1572 17.8207 17.8184C17.8207 17.7538 17.8247 17.6878 17.8132 17.6239C17.7901 17.4952 17.7487 17.6456 17.7314 17.6968C17.6976 17.7962 17.6496 17.9018 17.645 18.0083C17.6425 18.0675 17.6513 18.1284 17.639 18.187C17.6121 18.315 17.6045 18.4308 17.6045 18.5623" stroke="#74392A" stroke-width="0.5" stroke-linecap="round"/>
<path d="M17.4963 17.7651C17.4963 17.716 17.5073 17.6531 17.4933 17.6059C17.4723 17.5349 17.5181 17.5378 17.5369 17.4813" stroke="#74392A" stroke-width="0.5" stroke-linecap="round"/>
<path d="M17.5369 17.4678C17.7133 17.4678 17.8891 17.4813 18.0639 17.4813" stroke="#74392A" stroke-width="0.5" stroke-linecap="round"/>
<path d="M18.0774 17.549C18.0774 17.6125 18.0774 17.6761 18.0774 17.7396C18.0774 17.8273 18.1085 17.9077 18.1172 17.9941C18.1283 18.1052 18.1214 18.2257 18.1179 18.3372C18.1156 18.4113 18.0772 18.4824 18.0669 18.5564C18.059 18.6135 18.0472 18.6704 18.0399 18.7276C18.0258 18.8369 18.0369 18.9528 18.0369 19.0631C18.0369 19.167 18.0158 19.2635 18.0106 19.3656C18.001 19.5535 18.0233 19.7418 18.0233 19.9272" stroke="#74392A" stroke-width="0.5" stroke-linecap="round"/>
<path d="M18.0234 19.9271C18.0234 19.825 17.9946 19.7551 17.9348 19.6696C17.8679 19.5741 17.841 19.4841 17.8177 19.3701C17.8006 19.2865 17.7552 19.2363 17.7141 19.1629C17.6942 19.1274 17.7001 19.084 17.6856 19.0458C17.6685 19.0011 17.6472 18.9508 17.645 18.9032C17.641 18.8145 17.613 18.7255 17.6052 18.6367C17.6016 18.595 17.591 18.5562 17.591 18.5143C17.591 18.4634 17.569 18.429 17.5639 18.3837C17.5557 18.3094 17.5369 18.2466 17.5369 18.1697C17.5369 18.0811 17.5355 18.0125 17.5099 17.9272" stroke="#74392A" stroke-width="0.5" stroke-linecap="round"/>
<path d="M17.6855 19.2379C17.6855 19.2945 17.6959 19.346 17.6991 19.4001C17.7003 19.4212 17.7304 19.4185 17.7396 19.4346C17.7575 19.4659 17.7674 19.4944 17.7876 19.5247C17.8033 19.5482 17.8165 19.5879 17.8199 19.6155C17.8247 19.6535 17.8598 19.6755 17.8612 19.7139C17.8633 19.769 17.9181 19.8175 17.9295 19.8805C17.936 19.9159 17.9671 19.9249 17.9693 19.9616C17.9705 19.9805 17.9807 20.0178 17.9903 20.0344C18.0214 20.0877 18.0504 20.1363 18.0504 20.1973C18.0504 20.2271 18.0763 20.2261 18.0774 20.2544C18.0784 20.2803 18.0774 20.3065 18.0774 20.3324C18.0774 20.3877 18.0869 20.4345 18.118 20.4811" stroke="#74392A" stroke-width="0.5" stroke-linecap="round"/>
<path d="M23.55 17.9813C23.55 17.9588 23.548 17.9353 23.5508 17.913C23.5552 17.8777 23.5867 17.8582 23.5913 17.8236C23.5984 17.7706 23.6405 17.7297 23.6446 17.6765C23.6474 17.6408 23.6506 17.6105 23.6611 17.5759C23.6746 17.5313 23.7102 17.5021 23.6979 17.5699C23.6898 17.6148 23.6437 17.6703 23.6176 17.708C23.6068 17.7236 23.5914 17.7481 23.5756 17.7583C23.5534 17.7725 23.5359 17.8089 23.5162 17.8176C23.4468 17.8485 23.5123 17.7171 23.523 17.7005C23.5326 17.6856 23.6331 17.5728 23.6439 17.6104C23.6663 17.6889 23.6446 17.808 23.6446 17.8897C23.6446 18.1192 23.5906 18.3374 23.5906 18.5653C23.5906 18.7555 23.5906 18.9457 23.5906 19.1359C23.5906 19.4917 23.5906 19.8475 23.5906 20.2034C23.5906 20.4429 23.5446 20.7156 23.6236 20.9413C23.6369 20.9792 23.6304 21.0228 23.6311 21.0622C23.6324 21.1345 23.6446 21.2055 23.6446 21.2784C23.6446 21.4225 23.6446 21.5666 23.6446 21.7108" stroke="#74392A" stroke-width="0.5" stroke-linecap="round"/>
<path d="M23.6311 21.7243C23.5672 21.687 23.592 21.5705 23.5905 21.5051C23.5891 21.4437 23.5762 21.3728 23.556 21.3159C23.5435 21.2807 23.5524 21.2406 23.5492 21.2041C23.5461 21.1677 23.5243 21.1363 23.523 21.0997C23.5212 21.0493 23.523 20.9985 23.523 20.9481C23.523 20.8565 23.523 20.7649 23.523 20.6733C23.523 20.5821 23.4959 20.5008 23.4959 20.4076C23.4959 20.1814 23.4959 19.9552 23.4959 19.7289C23.4959 19.577 23.5517 19.4535 23.5755 19.3048C23.5986 19.1605 23.6311 19.0047 23.6311 18.8581C23.6311 18.6468 23.6594 18.4213 23.5875 18.2215C23.5694 18.1713 23.5273 18.1317 23.5094 18.0759C23.4833 17.9943 23.5094 17.9824 23.5094 18.0729C23.5094 18.258 23.5365 18.4385 23.5365 18.6232C23.5365 18.7808 23.5365 18.9385 23.5365 19.0961C23.5365 19.1721 23.5058 19.2322 23.4967 19.3048C23.4885 19.3705 23.4959 19.4412 23.4959 19.5075C23.4959 19.7786 23.523 18.9656 23.523 18.6945C23.523 18.5468 23.523 18.3992 23.523 18.2516C23.523 18.1705 23.523 18.0894 23.523 18.0083C23.523 17.9378 23.523 17.8838 23.523 17.9948C23.523 18.0596 23.523 18.1244 23.523 18.1893C23.523 18.2135 23.5243 18.1407 23.523 18.1164C23.5214 18.0877 23.4959 18.0698 23.4959 18.0421C23.4959 17.9325 23.4824 17.8222 23.4824 17.7111" stroke="#74392A" stroke-width="0.5" stroke-linecap="round"/>
<path d="M23.496 21.4134C23.3804 21.6039 23.4481 21.8655 23.4795 22.0696C23.4903 22.1395 23.4867 22.2208 23.4825 22.2918C23.4818 22.3037 23.4403 22.3457 23.4315 22.3368C23.4118 22.3172 23.4284 22.2161 23.4284 22.1867C23.4284 21.9191 23.4555 21.6564 23.4555 21.3894C23.4555 21.0457 23.442 20.693 23.442 20.3459" stroke="#74392A" stroke-width="0.5" stroke-linecap="round"/>
<path d="M24.3641 21.7686C24.3641 21.702 24.3391 21.5774 24.3697 21.518C24.3889 21.4805 24.4649 21.436 24.5061 21.4435C24.5433 21.4502 24.4983 21.5392 24.4894 21.5514C24.4271 21.6371 24.3316 21.6533 24.2555 21.7213C24.2201 21.7529 24.206 21.7887 24.1754 21.825C24.1253 21.8845 24.1593 21.8607 24.1949 21.825C24.2193 21.8006 24.2246 21.7703 24.2513 21.7436C24.2823 21.7125 24.331 21.6957 24.3571 21.6621C24.3714 21.6437 24.4073 21.6031 24.4295 21.596C24.4677 21.5838 24.453 21.6616 24.4365 21.6781C24.397 21.7177 24.3469 21.7358 24.3077 21.7749C24.2852 21.7974 24.266 21.825 24.2415 21.8438C24.2201 21.8604 24.3093 21.8188 24.3265 21.8188" stroke="#74392A" stroke-width="0.5" stroke-linecap="round"/>
<path d="M24.9282 19.0613C25.0028 19.0753 24.9429 19.747 24.9407 19.8412C24.9392 19.9059 24.9208 19.9738 24.9149 20.0389C24.9119 20.0724 24.913 20.1324 24.8975 20.1615C24.882 20.1907 24.8655 20.2114 24.8655 20.2464C24.8655 20.3863 24.8481 20.5385 24.7903 20.6656" stroke="#74392A" stroke-width="0.5" stroke-linecap="round"/>
<path d="M23.8169 17.3988C23.731 17.3988 23.7107 17.5116 23.6592 17.5631C23.6502 17.5722 23.6012 17.606 23.6293 17.583C23.6913 17.5324 23.7454 17.4703 23.802 17.4137" stroke="#74392A" stroke-width="0.5" stroke-linecap="round"/>
<path d="M23.802 17.4138C23.802 17.3403 23.7046 17.4798 23.6892 17.5051C23.6561 17.5592 23.6092 17.6048 23.578 17.6595C23.5668 17.679 23.5683 17.5532 23.578 17.5267C23.5936 17.4836 23.6699 17.4359 23.7041 17.408C23.7517 17.369 23.7694 17.3557 23.7721 17.2827C23.7751 17.2027 23.6725 17.2858 23.6526 17.3126C23.6173 17.3603 23.5697 17.3883 23.5448 17.4437C23.5209 17.4967 23.5291 17.5503 23.4734 17.5781" stroke="#74392A" stroke-width="0.5" stroke-linecap="round"/>
<path d="M24.8326 18.2353C24.8775 18.219 24.8977 18.1539 24.9355 18.1241C24.9748 18.0933 25.0162 18.071 25.0617 18.0544C25.0924 18.0432 25.126 17.9658 25.1463 17.9399C25.1799 17.8972 25.2114 17.8768 25.2658 17.8768" stroke="#74392A" stroke-width="0.5" stroke-linecap="round"/>
<path d="M25.1628 21.0258C25.1037 21.0389 25.1051 21.1994 25.1026 21.2466C25.0972 21.348 25.0452 21.4514 24.9911 21.5365C24.9484 21.6036 24.8738 21.6557 24.8461 21.7328C24.8163 21.8154 24.7176 21.9238 24.6498 21.9793C24.5904 22.0279 24.5396 22.1116 24.4714 22.1488C24.3648 22.2069 24.2907 22.3476 24.1993 22.4265C24.0828 22.5269 23.9523 22.642 23.8089 22.6941C23.7225 22.7256 23.6507 22.8324 23.5569 22.8324" stroke="black" stroke-width="0.5" stroke-linecap="round"/>
<path d="M25.2786 20.8072C25.287 20.7886 25.302 20.7619 25.302 20.7411C25.302 20.73 25.2738 20.791 25.2691 20.8029C25.2279 20.9075 25.1791 21.0106 25.1152 21.1029" stroke="black" stroke-width="0.5" stroke-linecap="round"/>
<path d="M24.0326 16.4161C24.0326 16.4612 24.0607 16.4932 24.0765 16.5338C24.0822 16.5485 24.1052 16.5769 24.1177 16.5864C24.1351 16.5997 24.1559 16.6105 24.1713 16.6259C24.1962 16.6509 24.1947 16.6795 24.2064 16.7111C24.2214 16.7515 24.2091 16.7881 24.2301 16.827C24.2614 16.8849 24.316 16.9523 24.364 16.9972C24.3985 17.0296 24.4259 17.0719 24.4465 17.1153C24.4566 17.1367 24.457 17.1615 24.4671 17.1842C24.4866 17.2284 24.5244 17.2662 24.554 17.304C24.6029 17.3665 24.6562 17.4251 24.7142 17.4809C24.767 17.5317 24.8228 17.5634 24.8858 17.6012" stroke="black" stroke-width="0.5" stroke-linecap="round"/>
</svg>
