<svg width="21" height="19" viewBox="0 0 21 19" fill="none" xmlns="http://www.w3.org/2000/svg">
<path d="M0.166664 1.74999C0.166664 1.40742 0.30275 1.07888 0.544985 0.836649C0.787219 0.594414 1.11576 0.458328 1.45833 0.458328H19.5417C19.8842 0.458328 20.2128 0.594414 20.455 0.836649C20.6972 1.07888 20.8333 1.40742 20.8333 1.74999C20.8333 2.09257 20.6972 2.42111 20.455 2.66334C20.2128 2.90558 19.8842 3.04166 19.5417 3.04166H1.45833C1.11576 3.04166 0.787219 2.90558 0.544985 2.66334C0.30275 2.42111 0.166664 2.09257 0.166664 1.74999ZM0.166664 17.25C0.166664 16.9074 0.30275 16.5789 0.544985 16.3366C0.787219 16.0944 1.11576 15.9583 1.45833 15.9583H19.5417C19.8842 15.9583 20.2128 16.0944 20.455 16.3366C20.6972 16.5789 20.8333 16.9074 20.8333 17.25C20.8333 17.5926 20.6972 17.9211 20.455 18.1633C20.2128 18.4056 19.8842 18.5417 19.5417 18.5417H1.45833C1.11576 18.5417 0.787219 18.4056 0.544985 18.1633C0.30275 17.9211 0.166664 17.5926 0.166664 17.25ZM9.20833 8.20833C8.86576 8.20833 8.53722 8.34441 8.29498 8.58665C8.05275 8.82888 7.91666 9.15742 7.91666 9.5C7.91666 9.84257 8.05275 10.1711 8.29498 10.4133C8.53722 10.6556 8.86576 10.7917 9.20833 10.7917H19.5417C19.8842 10.7917 20.2128 10.6556 20.455 10.4133C20.6972 10.1711 20.8333 9.84257 20.8333 9.5C20.8333 9.15742 20.6972 8.82888 20.455 8.58665C20.2128 8.34441 19.8842 8.20833 19.5417 8.20833H9.20833Z" fill="white"/>
</svg>
