<svg width="33" height="35" viewBox="0 0 43 45" fill="none" xmlns="http://www.w3.org/2000/svg">
<path fill-rule="evenodd" clip-rule="evenodd" d="M25.3785 0.342C24.546 -1.00583e-07 23.4885 0 21.3757 0C19.263 0 18.2077 -1.00583e-07 17.373 0.342C16.2647 0.796974 15.3826 1.67347 14.9205 2.77875C14.709 3.2805 14.628 3.86775 14.5942 4.7205C14.5792 5.33836 14.4069 5.94218 14.0935 6.47487C13.7801 7.00756 13.336 7.45151 12.8032 7.76475C12.2604 8.06648 11.6502 8.22633 11.0291 8.22947C10.4081 8.23262 9.79631 8.07897 9.25046 7.78275C8.48996 7.38225 7.93871 7.16175 7.39421 7.08975C6.20296 6.93334 4.99812 7.25355 4.04171 7.98075C3.32621 8.52525 2.79746 9.43425 1.74221 11.25C0.68471 13.0657 0.15821 13.9725 0.0389599 14.8612C-0.11854 16.0447 0.20546 17.2417 0.93896 18.189C1.27196 18.621 1.74221 18.9832 2.46896 19.4377C3.54221 20.106 4.23071 21.2445 4.23071 22.5C4.23071 23.7555 3.54221 24.894 2.47121 25.56C1.74221 26.0167 1.27196 26.379 0.93671 26.811C0.574646 27.2789 0.308891 27.8139 0.1548 28.385C0.000708506 28.9562 -0.0386633 29.5523 0.0389599 30.1388C0.15821 31.0253 0.68471 31.9343 1.74221 33.75C2.79971 35.5657 3.32621 36.4725 4.04171 37.0192C4.99571 37.746 6.20171 38.0655 7.39421 37.9103C7.93871 37.8383 8.48996 37.6178 9.25046 37.2173C9.79659 36.9206 10.4088 36.7668 11.0303 36.7699C11.6517 36.7731 12.2624 36.9331 12.8055 37.2352C13.899 37.8652 14.547 39.024 14.5942 40.2795C14.628 41.1345 14.709 41.7195 14.9205 42.2212C15.3795 43.3237 16.2615 44.2012 17.373 44.658C18.2055 45 19.263 45 21.3757 45C23.4885 45 24.546 45 25.3785 44.658C26.4867 44.203 27.3689 43.3265 27.831 42.2212C28.0425 41.7195 28.1235 41.1345 28.1572 40.2795C28.2022 39.024 28.8525 37.863 29.9482 37.2352C30.491 36.9335 31.1012 36.7737 31.7223 36.7705C32.3433 36.7674 32.9551 36.921 33.501 37.2173C34.2615 37.6178 34.8127 37.8383 35.3572 37.9103C36.5497 38.0678 37.7557 37.746 38.7097 37.0192C39.4252 36.4747 39.954 35.5657 41.0092 33.75C42.0667 31.9343 42.5932 31.0275 42.7125 30.1388C42.7898 29.5521 42.75 28.956 42.5956 28.3848C42.4411 27.8136 42.1749 27.2787 41.8125 26.811C41.4795 26.379 41.0092 26.0168 40.2825 25.5623C39.2092 24.894 38.5207 23.7555 38.5207 22.5C38.5207 21.2445 39.2092 20.106 40.2802 19.44C41.0092 18.9833 41.4795 18.621 41.8147 18.189C42.1768 17.7211 42.4425 17.1861 42.5966 16.615C42.7507 16.0438 42.7901 15.4477 42.7125 14.8612C42.5932 13.9747 42.0667 13.0657 41.0092 11.25C39.9517 9.43425 39.4252 8.5275 38.7097 7.98075C37.7533 7.25355 36.5485 6.93334 35.3572 7.08975C34.8127 7.16175 34.2615 7.38225 33.501 7.78275C32.9548 8.07937 32.3426 8.23324 31.7211 8.23009C31.0997 8.22694 30.4891 8.06688 29.946 7.76475C29.4136 7.45124 28.97 7.00716 28.657 6.47449C28.344 5.94182 28.172 5.33814 28.1572 4.7205C28.1235 3.8655 28.0425 3.2805 27.831 2.77875C27.6023 2.23141 27.2679 1.73449 26.8471 1.31638C26.4263 0.898274 25.9273 0.567175 25.3785 0.342ZM21.3757 29.25C25.1332 29.25 28.1775 26.2282 28.1775 22.5C28.1775 18.7718 25.131 15.75 21.3757 15.75C17.6182 15.75 14.574 18.7718 14.574 22.5C14.574 26.2282 17.6205 29.25 21.3757 29.25Z" fill="white"/>
</svg>
