<svg width="153" height="130" viewBox="0 0 153 130" fill="none" xmlns="http://www.w3.org/2000/svg">
<g clip-path="url(#clip0_1218_1211)">
<path d="M76 0L151.344 130.5H0.655792L76 0Z" fill="#A67C52"/>
<path d="M101.219 59.7816L108.866 61.31C109.276 61.3922 109.614 61.6933 109.732 62.0994C109.792 62.2966 109.798 62.5064 109.748 62.7065C109.698 62.9065 109.595 63.0893 109.45 63.2354L103.185 69.5043C102.435 70.2507 101.42 70.6705 100.361 70.6723H95.1644L82.1156 83.7256C82.3646 84.6656 82.4104 85.6478 82.2499 86.6069C82.0895 87.5659 81.7265 88.4798 81.1852 89.2876C80.6439 90.0953 79.9367 90.7785 79.1106 91.2915C78.2846 91.8045 77.3587 92.1356 76.3947 92.2627C75.4306 92.3899 74.4506 92.3101 73.5198 92.0287C72.589 91.7474 71.7288 91.2709 70.9966 90.6311C70.2644 89.9912 69.677 89.2027 69.2734 88.318C68.8699 87.4333 68.6595 86.4728 68.6563 85.5004C68.656 84.4502 68.8975 83.4141 69.3619 82.4722C69.8264 81.5303 70.5014 80.708 71.3347 80.0688C72.1679 79.4296 73.1371 78.9908 74.1672 78.7863C75.1972 78.5817 76.2606 78.617 77.2748 78.8894L90.3281 65.8315V60.6439C90.3281 59.5854 90.7479 58.568 91.4961 57.8197L97.765 51.5509C97.9111 51.4054 98.0939 51.3024 98.294 51.2525C98.494 51.2027 98.7038 51.2081 98.9011 51.268C99.3071 51.3866 99.6082 51.7242 99.6904 52.1349L101.219 59.7816Z" fill="white"/>
<path d="M48.1249 85.5001C48.1296 89.4146 48.9737 93.2825 50.6004 96.843C52.227 100.403 54.5983 103.574 57.5544 106.14C60.5104 108.706 63.9824 110.608 67.7361 111.718C71.4898 112.828 75.438 113.121 79.3142 112.575C83.1905 112.03 86.9047 110.659 90.2063 108.557C93.5079 106.454 96.3201 103.667 98.4533 100.385C100.586 97.1027 101.991 93.4012 102.572 89.5301C103.153 85.659 102.897 81.7084 101.821 77.9446C101.67 77.5049 101.61 77.039 101.645 76.5754C101.68 76.1118 101.808 75.6601 102.023 75.2478C102.238 74.8355 102.535 74.4713 102.895 74.1773C103.255 73.8832 103.671 73.6656 104.118 73.5376C104.565 73.4096 105.033 73.3739 105.495 73.4326C105.956 73.4914 106.4 73.6434 106.801 73.8794C107.201 74.1154 107.55 74.4305 107.825 74.8054C108.1 75.1803 108.295 75.6073 108.4 76.0603C110.483 83.349 110.087 91.123 107.275 98.1626C104.463 105.202 99.3936 111.109 92.8621 114.957C86.3306 118.804 78.7066 120.374 71.1863 119.421C63.666 118.468 56.6748 115.046 51.3095 109.69C45.9502 104.327 42.5239 97.3348 41.5686 89.8127C40.6134 82.2906 42.1832 74.6643 46.0317 68.131C49.8803 61.5978 55.7895 56.5276 62.8317 53.7166C69.8738 50.9055 77.6502 50.5127 84.9397 52.5999C85.8077 52.8537 86.54 53.4407 86.9765 54.2326C87.413 55.0246 87.5182 55.9572 87.2692 56.8265C87.0202 57.6959 86.4373 58.4313 85.6477 58.8721C84.8581 59.313 83.9261 59.4233 83.0554 59.1791C78.9791 58.0085 74.6867 57.8011 70.5165 58.5732C66.3464 59.3452 62.4127 61.0756 59.0256 63.6278C55.6386 66.1801 52.8908 69.4843 50.9991 73.2801C49.1074 77.0758 48.1235 81.2591 48.1249 85.5001Z" fill="white"/>
<path d="M61.8125 85.5C61.8128 87.9939 62.4939 90.4403 63.7824 92.5754C65.0709 94.7106 66.9179 96.4534 69.1242 97.6159C71.3305 98.7785 73.8123 99.3166 76.3019 99.1722C78.7916 99.0279 81.1945 98.2065 83.2517 96.7968C85.3084 95.3835 86.9397 93.4348 87.969 91.1615C88.9983 88.8881 89.3865 86.3766 89.0917 83.8986C89.0119 83.2973 89.0939 82.6856 89.3291 82.1264C89.5644 81.5673 89.9444 81.081 90.4301 80.7176C90.9157 80.3541 91.4895 80.1267 92.0923 80.0587C92.6951 79.9907 93.3051 80.0846 93.8595 80.3307C94.4138 80.5736 94.8937 80.9592 95.2504 81.4482C95.6071 81.9371 95.8277 82.5118 95.8898 83.1139C96.3855 87.3483 95.5508 91.6321 93.5014 95.3706C91.452 99.1091 88.2896 102.117 84.4532 103.976C80.6167 105.836 76.2965 106.455 72.0922 105.748C67.8879 105.041 64.008 103.042 60.9911 100.03C57.9741 97.0177 55.9698 93.1408 55.2562 88.9376C54.5426 84.7343 55.1552 80.4132 57.009 76.574C58.8628 72.7347 61.8658 69.5678 65.6012 67.5127C69.3365 65.4576 73.619 64.6163 77.8542 65.1057C78.3077 65.1477 78.7483 65.2799 79.15 65.4945C79.5517 65.709 79.9066 66.0016 80.1938 66.355C80.481 66.7085 80.6948 67.1157 80.8225 67.5529C80.9503 67.99 80.9895 68.4483 80.9379 68.9008C80.8863 69.3533 80.7448 69.7909 80.5219 70.1881C80.2989 70.5852 79.9989 70.9338 79.6395 71.2135C79.28 71.4932 78.8684 71.6983 78.4286 71.8169C77.9889 71.9354 77.5299 71.9649 77.0786 71.9038C75.1608 71.6811 73.2176 71.8667 71.3766 72.4483C69.5356 73.03 67.8384 73.9945 66.3966 75.2786C64.9549 76.5626 63.801 78.1372 63.011 79.8988C62.2209 81.6605 61.8125 83.5693 61.8125 85.5Z" fill="white"/>
</g>
<defs>
<clipPath id="clip0_1218_1211">
<rect width="153" height="130" fill="white"/>
</clipPath>
</defs>
</svg>
